<?xml version="1.0" encoding="UTF-8"?>
<svg id="Camada_1" data-name="Camada 1" xmlns="http://www.w3.org/2000/svg" viewBox="0 0 1080 1080">
  <path d="M284.23,859.08c-11.99-32.9-23.16-69.18-33.45-102.61-8.76-26.25-19.32-55.84-28.6-81.88l-19.23-1.91c-10.57-1.17-27.12,1.88-34.92-6.68-10.98-11.39-25.52-27.29-36.25-38.71-3.88-4.14-25.07-24.21-26.74-29.41.47-29.18,1.04-135.47,1.15-166.56.02-3.8,2.95-6.62,4.98-9.06,19.2-22.54,41.01-51.33,60.08-74.08,46.79-2.2,230.73.84,277.94-1.39,25.91-7.22,52.57-20.43,77.72-30.14,38.56-15.59,78.44-32.97,116.67-49.34,74.67-31.46,150.66-62.23,225-94.45,18.01-7.72,39.93-16.71,58.2-23.8,0,0,10.91-4.63,10.91-4.63,3.79-1.61,8.95-5.72,13.45-4.82,8.8,81.71-.24,637.25,2.87,735.18-4.45,2.93-8.32-.82-12.13-2.54,0,0-13.63-6.15-13.63-6.15-22.28-7.76-46.23-18.91-68.19-27.5-40.64-17.11-82.92-34.79-123.57-51.82-5.88-2.78-17.91-7.52-24.11-9.44-6.68-3.01-21.23-9.08-28.11-11.87-36.74-15.33-75.44-31.3-112.57-45.74-26.48-10.66-54.8-23.36-81.75-32.88-4.77-2.4-14.71-6.32-19.74-8.13-4.81-1.83-9.01-5.49-14.67-5.5,0,0-44.13-.07-44.13-.07-3,0-6.2,2.53-7.49,4.8,0,0,3.54,6.44,3.54,6.44,0,0,5.47,19.63,5.47,19.63,2.99,12.24,8.75,28.54,11.99,40.73,11.16,34.94,23.18,72.04,34.89,106.77,4.26,13.23,9.93,32.79,14.5,46.02,0,0,4.86,15.28,4.86,15.28.48,1.51,2.51,3.28,2.4,4.49-.12,1.38-3.08,3.72-4.66,3.71-44.12-.38-128.04-.41-171.32-.13-9.95-18.56-13.39-42.43-21.35-61.8ZM487.89,648.33c24.92,8.47,51.68,20.84,76.06,30.64,11.9,4.03,27.78,11.38,39.46,16.07,23.74,9.79,50.51,20.5,74.05,30.76,26.62,10.05,54.93,22.65,81.33,33.21,31.62,13.24,65.51,26.49,96.7,40.72,10.9,4.14,26.26,10.17,37.16,14.4.93-.58,22.17,10.83,24.04,8.1,8.22-130.09-.42-462.39,2.94-596.84,0,0-.88-28.57-.88-28.57-.05-1.5-2.26-5.19-3.47-4.73,0,0-4.45,1.65-4.45,1.65-22.7,8.53-47.41,19.8-70.14,28.21-34.9,16.1-72.46,30.88-108.02,45.49-40.67,18.35-83.76,35.16-124.83,52.6-30.37,13.5-63.3,26.36-93.81,39.54-6.76,3.47-21.57,7.04-27.6,11.94-7.83,4.4-13.22,2.87-20.73,10.1-.7,2.46-1.67,5.78-1.67,8.59v245.52c3.44,8.19,16.88,9.7,23.87,12.63ZM198.43,637.9c58.27-.8,119.86-.23,178.09-.4,0,0,28.47.24,28.47.24,6.77-1.53,24.63,3.18,24.77-8.3,2.25-74.36-.73-167.61,1.47-241.48l-6.4-5.98-234.35.07c-4.14,2.86-12.11,12.24-15.29,16.25-8.16,9.81-24.84,30.06-32.62,39.99-4.7,5.87-2.8,9.54-2.78,16.09l.27,124.45s1.24,6.9,1.24,6.9c7.85,9.09,20.72,23.56,29.2,31.83,8.66,7.64,14.35,21.3,27.94,20.35ZM344.51,885.71c21.26-.03,64.17-.43,85.45-.88,8.58-1.54-1.31-19.25-1.71-23.86-13.77-45.72-29.55-93.17-44.82-138.38-2.2-7.35-8.59-27.66-10.75-35.29-1.3-4.31-2.55-13.63-9.21-13.76-19.79-.21-63.97-1.41-83.38-1.2-3.85,1.09-16.8-.98-19.29,3.02-3.1,4.18,3.39,17.1,4.25,21.33,5.99,24.15,17.14,50.17,25.31,73.6,4.64,13.05,9.55,31.56,13.75,44.69,4.43,14.06,11.73,33.99,16.93,47.81,2.18,5.46,3.71,20.21,10.87,21.86,0,0,12.59,1.06,12.59,1.06Z"/>
</svg>