<?xml version="1.0" encoding="UTF-8"?>
<svg id="Camada_1" data-name="Camada 1" xmlns="http://www.w3.org/2000/svg" viewBox="0 0 1080 1080">
  <path d="M824.48,422.73c-25.82.13-58.61-.26-84.49-.4-8.48.72-25.55.85-33.98-.03,0,0-26.52.19-26.52.19-7.63-.67-25.16,4.67-29.54-4.62,66.4-76.59,137.77-158.28,203.89-235.19.84-4.72-1.85-7.8-6.67-7.68-13.85-.47-43.54-.6-57.57-.48-30.31.07-66.94-.34-97.15-.08-37.23,2.04-32.5,1.48-32.25-30.32.03-9.5,13.99-6.23,15.16-6.23,71.62-.92,191.7,1.06,261.45-1.07,2.62,4.22,1.32,7.51-1.45,10.51,0,0-12.92,13.97-12.92,13.97-15.01,17.25-35.68,43.42-51.87,59.24-15.51,17.73-43.27,49.88-57.63,68.34-25.24,26.22-56.54,63.43-79.69,91.82-.22,2.71,3.54,4.37,6.87,4.37l190.77-.03c3.8,6.22,1.64,24.11,2.15,31.1,0,3-2.82,5.85-6,5.87-23.59.18-79.55.68-102.55.71Z"/>
  <g>
    <path d="M547.13,657.5l44.75.19c7.69.03,15-1.84,22.67,1.09,2.12,3.7,1.66,9.13.91,13.58-1.35,7.95,2.06,13.72-2.59,21.62-9.37.32-242.46-.25-243.75-.57-2.8-3.23-.47-7.14,2.13-10.2,11.37-13.27,58.05-68.67,68.97-80.05,24.98-30.08,62.29-73.47,87.8-103.17,0,0,10.18-11.76,10.18-11.76,1.04-1.2,1.06-4.77.08-5.86-3.83-7.72-160.24,3.42-163.79-5.51-1.91-4.58-.06-22.02-.61-27.18.04-6.39,6.93-5.75,11.35-5.75l149.21-.27c22.69-1.27,44.65,1.38,67.45.1,6.01-.18,17.94-2.77,18.2,3.94.26,2.98-19.22,22.47-21.06,25.17-28.03,32.56-69.17,78.85-95.84,112.39-18.32,22.05-42.65,46.87-59.6,70.03,1.75.91,5.48,2.71,7.34,2.7,23.96-.27,72.36-.54,96.21-.49Z"/>
    <path d="M199.71,940.21c-8.58.24-26.24.11-34.88-.06-2.66-.03-6.96-3.76-4.92-6.08,8.78-9.85,30.59-35.61,39.46-44.61,18.71-24.02,41.47-50.67,61.45-73.68,0,0,11.24-14.74,11.24-14.74l18.2-20.79c1.33-1.52.95-6.61-.25-8.13-34.72-1.16-71.85-.29-105.21-.78-4.05-.39-14.18.98-15.58-4.34,0,0,.19-25.74.19-25.74.04-4.97,7.1-4.26,10.6-4.27,27.31.23,160.83-.8,185.37.28,4.46,2.9.25,7.22-1.41,9.38-3.64,4.76-10.91,14.08-14.64,18.72-16.5,18.59-43.75,50.7-59.94,70.09-9.35,9.41-21.31,25.15-29.28,35.82,0,0-19.13,22.94-19.13,22.94-1.46,1.54-3.78,2.85-4.13,4.41-.4,1.8.49,5.86,2.03,6.64,16.48-2.27,40.99.38,57.74.22,15.21.02,46.29.02,61.59,0,12.53.96,3.5,20.28,6.32,28.78.26,3-4.23,5.73-7.67,5.73l-157.17.21Z"/>
  </g>
</svg>