<?xml version="1.0" encoding="UTF-8"?>
<svg id="Camada_1" data-name="Camada 1" xmlns="http://www.w3.org/2000/svg" viewBox="0 0 1080 1080">
  <path d="M502.77,960.41c-.36-2.17-62.24-1.04-64.69-1.32-40.59-27.12-88.26-57.92-129.57-84.16,0,0-36.33-23.15-36.33-23.15-10.7-7.61-20.29-11.27-25.53-24.28-22.29-34.44-46.64-78.24-69.05-112.58,0,0-30.21-49.55-30.21-49.55-.29-11.33.63-120.38.02-134.73-.77-24.29.78-75.66.86-100.53,1.74-7.29,8.52-14.27,11.78-20.83,13.7-23.74,30.12-50.13,44.6-73.35,5.7-9.69,17.42-31.17,23.21-40.74,0,0,26.03-42.94,26.03-42.94,4.3-7.1,11.16-9.55,18.16-13.79,54.62-32.57,113.01-68.41,167.23-101.61h221.39c58.01,36.27,125.98,75.96,183.65,112.26,13.62,23.56,30.75,52.02,44.69,75.24,10.34,17.91,23.81,41.96,35.36,59.19,5.57,10.28,14.86,25.69,20.97,35.45,10.6,4.55,4.47,91.13,6.23,100.1-.17,10.53-.18,126.43-.3,140.3-.02,8.31-3.05,12.87-7.15,19.56-21.67,34.32-78.22,128.2-99.06,161.46-58.32,39.24-124.91,80.58-184.1,118.65-4.58.2-33.76-.58-37.32,1.4,0,0-29.39-.36-29.39-.36-9.23-.75-21.88-2.12-30.88.38,0,0-60.6-.06-60.6-.06ZM318.31,392.65c7.7,2.5,23.61,7.95,31.16,10.42,12.96,2.53,30.68,14.81,42.71,4.35,39.04-31.51,95.4-70.67,137.65-98.06,2.86-2,1.56-53.64,2.04-57.32.66-12.78,1.78-38.74,1.63-51.47.02-1.58-1.46-4.71-2.69-5.59-2.29-1.64-23.44-2.43-34.76-1.28-18.95,1.92-36.92-2.38-41.38.23-12.28,7.29-27.65,16.22-39.91,23.68-27.34,17.03-64.97,38.98-92.5,56.26-9.55,6.22-24.23,12-29.75,22.62-11.03,18.43-33.23,54.51-43.2,73.14,21.26,10.44,46.86,15.06,69.01,23.04ZM806.78,411.43s23.34-3.49,23.34-3.49c7.64-1.12,9.25-14.66,12.47-19.93,2.37-7.01,9.83-15.58,4.6-23.02-9.23-14.8-30.97-52.4-38.76-67.26-3.89-7.16-8.53-11.68-15.56-15.58-9.55-5.02-29.52-16.53-38.45-22.17,0,0-77.12-46.92-77.12-46.92-8.95-4.59-24.34-17.77-34.21-19.69-20.94-1.73-40.7,1.84-61.34.32-5.32-.8-9.89.4-9.91,6.84.18,23.4-.82,77.98-1.29,100.73-.12,5.48-1.52,9.96,3.39,14.13,40.43,33.87,81.59,74.22,119.24,111.31,16.16.99,43.66-5.71,59.95-7.5,13.38-1.77,40.31-5.68,53.65-7.78ZM392.28,618.46c5.75-9.01,19.86-19.71,14.47-31.79-4.55-14.13-10.53-36.1-14.02-50.55-3.19-13.23-12.28-46.33-15.7-59.91-3.96-15.06-.66-21.84-15.79-26.72-17.21-5.73-38.65-11.73-55.6-18.05-18.72-6.9-41.27-14.74-60.41-20.43,0,0-13.33-4.09-13.33-4.09-5.28-1.62-7.96,5.58-9.93,8.83l-9.27,15.33c-3.85,7.86-10.92,15.91-12.76,24.78,0,0,.01,172.61.01,172.61l1.1,5.49c-1.76,7.93.84,15.63,6.03,21.26l11.47,19.7c3.29,4.99,9.96,17.12,13.21,22.07,2.04,3.39,5.28,10.36,9.58,10.88,15.09,2.49,58.91,6.22,74.67,8.27,8.07-5.1,22-26.76,28.75-33.92,13.68-19.04,33.68-44.88,47.52-63.75ZM898.08,484.38c-.45-7.77,2.41-32.47-4.19-38.44-5.22-7.09-11.96-26.41-20.48-30.22l-3.16,9.4c-5.42,5.21-2.47,9.42.07,14.5,3.88,7.79,19.66,38.88,22.76,46.28,3.17,4.62,3.29,1.31,5-1.5ZM693.96,719.16c5.02,8.08,14.85,26.2,19.68,34.24,3.35,7.53,6.97,10.25,15.36,8.41,31.41-1.52,67.61-1.92,98.94-3.99,5.53.47,22.15-34.42,26.21-39.14,14.98-20.8,28.11-50,42.06-71.71,4.04-4.33,1.07-67.99,1.83-74.51-.01-3.38-2.49-7.07-3.84-9.73-8.06-16.13-18.96-36.61-27.48-52.63-10.02-18.24-23.24-40.07-32.67-58.61-2.03-3.81-8.09-1.62-11.28-1.22,0,0-28.67,3.62-28.67,3.62-27.35,4.53-65.86,9.79-93.25,14.6-10.74,22.48-21.88,47.03-32.28,69.65-6.47,13.28-14.5,28.98-20.17,42.64-1.98,4.62-6.25,14.05-8.31,18.57-2.42,5.33-5.15,10.53-2.04,16.6,4.45,8.91,10.96,20.95,15.95,29.55,5.9,10.36,14.37,26.94,20.11,37.27,6.85,11.01,13.97,24.85,19.87,36.38ZM561.76,883.9c8.28.99,25.27,2.73,33.51,3.29,5.95.5,12.94,2.03,18.85-.72,18.77-30.89,45.74-70.57,64.93-101.58,3.16-4.98,4.59-7.72,1.51-13.28,0,0-17.27-31.26-17.27-31.26-6.06-12.68-18.12-31.98-24.95-44.27-6.8-13.47-23.55-44.62-31.16-57.06-2.07-3.66-5.23-7.09-9.96-7.09l-23.29.02c-21.52-1.67-47.97-4.54-69.6-4.74-9.13-.16-28.78-1.19-37.79-1.8-13.09-.57-28.14-7.36-36.14,7.56-17.49,24.47-38.38,52.42-55.8,77-7.63,10.71-17.08,20.23-22.77,32.16,6.35,14.44,13.73,31.68,20.35,45.98,4.24,10.67,10.48,25.12,15.66,35.33,2.74,5.58,7.8,16.97,10.13,22.71,0,0,9.89,22.94,9.89,22.94.96,2.22,6.46,2.82,8.83,2.96,46.3,2.79,98.73,9.04,145.07,11.85ZM508.78,908.75c-7.09-.64-25.38-1.64-32.7-2.02-3.56-.2-9.45-1.44-12.16.37-.9.6-.39,4.28.61,4.62s3.55,1.58,4.6,1.58c12.05.09,42.92.12,54.4-2.5-5.45-1.48-9.51-1.65-14.75-2.04Z"/>
</svg>