<?xml version="1.0" encoding="UTF-8"?>
<svg id="Camada_1" data-name="Camada 1" xmlns="http://www.w3.org/2000/svg" viewBox="0 0 1080 1080">
  <path d="M237.68,975.99c-5.05-84.83-3.95-461.9-.61-553.95,5.85-.74,91.51,2.2,93.88-2.47-2.64-49.78,2.09-129.21-.95-179.6.11-8.99.37-36.1,1.3-44.72,14.78-14.47,35.15-38.66,48.86-54.36,18.85-18.36,36.96-39.62,55.08-58.59,0,0,7.96-1.23,7.96-1.23,0,0,236.5,0,236.5,0,9.35,3.81,17.45,17.01,24.62,23.59,26.03,29.07,57.18,61.97,82.7,91.64-.46,54.56-.07,168.46.01,224.12,24.41,4.69,54.34.25,79.05,1.25,3.21.79,15.22-1.69,15.93,3.64-5.11,4.49,9.88,553.3-5.28,550.67-.01.01-639.05,0-639.05,0ZM753.23,419.22c-1.33-30.74.44-176.05-.16-209.69l-5.46-7.86c-3.04-2.9-8.5-8.86-11.41-11.82-18.03-19.73-40.24-43.09-57.77-63.26-4.17-3.4-7.95-10.73-14.4-9.54-4.46.47-8.74-.94-13.27-.94,0,0-194.36-.05-194.36-.05-6.5,0-9.38,4.61-12.86,8.47-2.96,3.65-9.81,10.62-12.97,14.03-15.16,16.23-37.15,41.2-53.21,56.79-4.45,5.39-13.66,11.82-12.45,20.52.89,23.31.77,49.57.58,72.87,0,0-.51,129.21-.51,129.21,0,2.13,3.91,4.13,6.25,4.13,0,0,351.54-.06,351.54-.06,8.22-1.45,22.59-.02,30.45-2.8ZM848.49,867.86s-.57-390.54-.57-390.54c-1.22-4.99,1.82-19.94-6.2-20.18-112.68-.29-456.14-.4-568.42-.07-1.71,1.59-3.29,4.45-3.29,7.25,4.14,4.36-7.98,477.93,4.27,476.75.01.01,568.43-.01,568.43-.01,3.88,0,6.25-2.86,6.23-6.3,0,0-.43-66.9-.43-66.9Z"/>
  <path d="M616.01,817.33c0,3.75-3.34,5.29-6.13,5.68l-102.84.05c-1.26-.58-3-2.69-3-4.29l.07-182.62c0-4.8.99-7.84,4.13-10.91l24.76-24.15,19.7-19.46c2.19-2.16,5.16-5.61,8.86-4.24l22.23,21.81,5.66,5.39,6.06,5.92,6.08,5.95c5.45,5.33,11.68,10.11,14.37,17.43-1.48,9.22-1.35,17.81.04,27.2v156.25ZM578.48,788.96c1.73-1.15,3.6-4.98,3.58-6.95l-.52-50.44-.02-46.04.31-22.57-.98-18.03-4.72-6.11-14.01-13.88c-3.53-3.5-8.52,1.98-10.49,4.58-4.26,5.62-11.28,9.78-13.27,16.57l-.83,32.4v31.09s.43,72.45.43,72.45c.02,3.23,1.54,8.41,5.1,8.66,11.71-1.34,22.93-1.92,35.42-1.74Z"/>
</svg>