<?xml version="1.0" encoding="UTF-8"?>
<svg id="Camada_1" data-name="Camada 1" xmlns="http://www.w3.org/2000/svg" viewBox="0 0 1080 1080">
  <defs>
    <style>
      .cls-1 {
        fill: none;
        stroke: #000;
        stroke-miterlimit: 10;
        stroke-width: 34px;
      }
    </style>
  </defs>
  <path d="M860.66,831.63c-5.62,1.11-10.15-.53-16.02-.53l-667.27-.04c-3.98,0-4.29-5.46-4.28-8.32l.06-488.13c4.69-6.92,10.83-11.71,16.3-17.07s10.3-8.76,18.64-9.03l11.13-.37c2.83-.09,7.63-1.14,9.62-3.34l.24-16.05c.02-1.33,2.2-3.72,4-3.72h83.82c3.28-.01,6.02,2.76,6.08,6.07l.23,12.56c.03,1.77,3.43,5.05,5.03,5.28l23.65-.22c7.18-.07,13.17-.25,20.26-.04l10.77.33c6.88.21,11.5-4.06,14.74-9.45l4.86-8.09,31.59-44.26,9.66-13.46,11.24-15.78c2.65-3.72,5.48-7.11,8.91-10l54.02.51,22.17-.03,70.87-.26c3.88-.01,9.34,1.36,12.69.86,7.9-1.18,10.58,2.89,14.24,8.24l13.69,20.01,4.42,6.66,13.31,18.79,26.05,37c2.33,3.31,4.24,9.29,9.76,9.27l118.33-.46,41.53-.22,15.49.23c11.97-1.14,23.19-.53,35.24.65l2.27,5.71c-1.48,6.79-1.55,14.04.22,21.31v399.61s-.08,87.14-.08,87.14c0,2.81-1.13,6.64-2.97,7.88l-15.11.94-20.1.02c-6.43,0-13.1-1.4-19.29-.18ZM889.02,674.35l-.47-94.81-.02-89.95v-41.05s-.02-40.11-.02-40.11l.26-44.45-.68-14.96c-.17-3.8-.2-7.06-1.69-10.96l-175.76-.42-22.27-.83c-5.14-4.95-9.77-10.64-13.65-16.66-13.69-21.26-27.94-41.33-43.4-61.34l-7.69-11.75c-2.16-3.3-5.52-9.93-10.65-9.93l-120.68.07c-3.97,0-7.62.69-11.41.15-5.19-.73-8.62,4.11-10.92,7.56l-4.91,7.35-8.7,12.04-14.58,21.67-29.4,41.36c-2.88,4.06-5.43,7.62-9.58,10.83l-101.21-.62c-11.01-.07-21.21-.85-32.09-.06-12.07.88-24.25.79-36.47.2l-16.18-.78c-5.45-.26-12.79,1.4-14.86,7.34v452.47c0,2.62,1.64,5.31,4.4,5.31h673.97c2.1,0,5.11-1.12,6.21-2.04s1.38-4.12,1.43-5.85l.55-19.64v-54.87s-.59-39.63-.59-39.63l1.03-5.63Z"/>
  <polygon class="cls-1" points="485.36 397.04 607.5 396 718.43 501.27 718.69 640.25 613.92 744.79 480.83 743.68 377.59 641.81 377.58 500.75 485.36 397.04"/>
</svg>