<?xml version="1.0" encoding="UTF-8"?>
<svg id="Camada_1" data-name="Camada 1" xmlns="http://www.w3.org/2000/svg" viewBox="0 0 1080 1080">
  <path d="M538.5,1017.53c-26.1-130.16-50.83-262.32-76.72-392.37-.17-5.92-4-11.71-10.35-12.66-46.27-6.64-96.04-17.88-141.86-26.93-58.03-10.57-117.48-23.85-175.38-34.72-6-1.18-26.38-4.52-31.46-7.52-18.74-1.72-40.39-7.19-58.8-10.62,1.99-3.11,4.86-7.39,7.81-7.77,90.06-14.53,179.76-36.93,269.75-52.65,39.06-8.26,82.1-13.07,121.05-22.71,14.2-1.77,19.1-3.36,19.86-19.02,26.6-128.85,49.82-259.73,76.89-388.66,10.17,24.63,14.02,63.82,18.96,89.99,24.21,103.68,39.51,211.45,62.59,315.32,130.68,24.54,263.04,49.53,393.54,75.43,8.11,1.56,22.36-1.5,25.24,9.63.34-.41-.52.62-1.1,1.32-76.56,12.22-154.42,29.17-230.54,44.37-58.34,11.1-121.55,22.23-179.55,34.46-12.08.2-10.71,23.88-13.48,31.53-24.22,117.96-45.61,237.55-69.44,355.6,0,0-3.97,18.23-3.97,18.23-.11.5-1.76,1.66-1.97,1.33,0,0-1.04-1.57-1.04-1.57ZM544.39,818.85c10.58-53.76,20.33-110.35,31.52-163.96,3.04-18.93,8.28-45.38,11.64-64.14,1.42-16.12,28.07-12.74,38.91-15.31,75.56-14.24,152.76-26.82,227.87-42.95-17.68-8.69-22.85-9.26-41.87-10.89-10.01-2.06-34.31-6.74-44.62-8.71-57.24-10.31-117.79-22.37-175.29-32.42-12.67-31.84-13.22-73.31-22.38-106.66-12.74-45.63-15.11-95.49-30.09-140.39-10.36,28.27-14.9,63.71-19.41,93.39-8.01,31.29-14.25,65.56-20.33,97.72-4.26,11.81-4.95,53.96-15.74,55.95-67.62,10.87-138.53,25.52-205.74,38.42-7.16,2.57-60.44,6.34-53.09,15.24,81.05,11.14,161.95,31.37,242.75,43.46,13.8.81,22.77,1.82,24.98,15.99,5.66,43.16,16.82,89.32,25.02,132.01,7.77,34.48,9.17,73.76,21.2,107.13,4.49-4.14,3.54-8.6,4.68-13.88Z"/>
  <path d="M382.05,362.49l-19.57,16.78c-51.23-73.58-100.55-149.67-151.03-223.79l8.76.93c35.44,37.76,77.53,74.91,114.36,111.05,13.68,14.79,28.85,30.64,44.05,43.94,30.4,33.48,39.65,22.25,3.43,51.09Z"/>
  <g>
    <path d="M225.85,898.93l-7.64,6.64c-4.55-3.88-1.11-6.98,1.04-10.39,15.44-24.26,33.36-48.68,49.17-72.69,17.65-27.51,36.32-56.06,55.4-82.61,13.18-16.93,22-40.6,38.88-54.1,13.05,11.72,32.07,25.12,44.08,37.73-58.59,59.29-119.09,119.54-180.94,175.42Z"/>
    <path d="M717.51,378.48c-11.96-10.31-30.87-25.96-42.27-36.61,11.42-19.43,32.41-32.77,47.22-49.48,45.98-47.54,96.32-94.84,145.35-139.23,2.95,4.62,1.86,4.63-1.75,7.87-9.97,16.87-23.28,34.54-33.89,51-23.13,33.18-45.16,68.44-68.52,101.46-5.87,9.42-14.63,22.01-21.04,31.06-8.26,10.91-14.05,25.01-25.1,33.93Z"/>
    <path d="M852.17,882.63c1.94,3.85,14.28,17.03,10.49,20.58-.78.7-3.23.1-3.8-.81-3.6-4.24-10.69-9.62-14.33-13.89-56.81-53.81-116.04-109.71-171.38-165.02,13.08-13.05,30.19-25.99,43.97-38.19,19.17,16.15,28.45,41.46,43.58,60.91,31.75,44.25,61.32,91.14,91.47,136.42Z"/>
  </g>
</svg>