<?xml version="1.0" encoding="UTF-8"?>
<svg id="Camada_1" data-name="Camada 1" xmlns="http://www.w3.org/2000/svg" viewBox="0 0 1080 1080">
  <path d="M695.74,801.21c-10.52-2.38-159.19,1.35-174.36,0,0,0-6.65-1.67-6.65-1.67-3.35.64-79.7-1.52-80.31,1.7,0,0-73.87.02-73.87.02-8.24-2.46-16.74-2.57-24.94-.04,0,0-40.24.04-40.24.04-13.41-2.02-36.46-1.63-49.94-.39,0,0-37.74-.11-37.74-.11-5.99-.02-8.37-4.93-9.21-9.51-4.99-29.52-13.12-64.61-18.56-94.06-15.88-88.42-34.96-178.9-51.16-267.25-6.36-33.09-13.95-72.69-20.26-105.78,0,0-6.73-37.04-6.73-37.04-.65-3.6-.72-6.88,1.62-8.57,35.78,25.12,76.94,58.94,111.55,85.49,11.18,7.05,40.8,31.13,51.45,39.78,27.76,21.4,60.59,46.39,88.02,68.21,7.38-10.36,16.75-26.09,22.66-37.13,19.43-32.84,41.69-71.38,61.1-104.12,32.7-59.14,73.24-120.62,104.5-180.45,6.41-.4,7.39,5.05,9.67,8.9,0,0,19.75,33.41,19.75,33.41,11.98,19.42,29.37,51.21,41.49,70.56,9.54,17.07,22.3,37.81,32.35,54.49,12.39,20.41,27.37,48.21,40.41,68.19,15.22,27.15,33.61,59.13,51.19,84.96,39.76-30.01,85.49-64.09,124.6-95.15,40.24-30.46,87.81-65.98,127.22-97.49,4.76,2.65,6.68.47,3.86,7.09-1.79,9.68-5.73,31.35-7.49,41.24-1.35,5.54-3.96,17-4.33,22.49-9.18,47.06-19.25,98.57-27.51,145.86-5.18,25.31-11.57,56.27-15.57,81.84-12.74,66.34-25.4,135.02-38.37,201.38-1.77,6.67.02,20.79-9.33,22.47-7.25-.02-44.87,1.08-51.31-.61,0,0-33.3-.36-33.3-.36,0,0-6.61,1.65-6.61,1.65,0,0-103.62-.03-103.62-.03ZM265.32,735.43h561s16.51-1.17,16.51-1.17c1.53-.11,5.31-.04,5.65-1.35,6.17-24.54,11.73-58.28,16.62-83.12,6.24-45.37,17.76-95.45,25.7-140.47,5.12-29.03,13.99-62.59,17.76-91.79-13.41,8-39.06,29.64-51.59,39.66-6.24,3.48-28.43,21.72-34.44,26.49-10.86,8.24-27.25,19.8-37.81,28.56-13.65,11.47-32.61,26.34-47.27,36.31-5.93,2.08-13.86,17.6-20.3,10.54-53.91-94.81-113.36-192.92-167.68-287.41,0,0-5.62-1.14-5.62-1.14-1.11.99-15.69,27.76-17.47,30.03-25.05,40.67-50.68,87.21-75.3,127.87-16.36,28.03-36.55,63.4-53.29,91.04-4.67,8.09-15.98,27.66-20.58,36.06-2.4,6.33-7.07,6.44-11.58,2.19-45.3-34.44-94.41-74.64-139.44-109.43-7.27-5.81-24.69-19.05-32.21-24.34-3.57-3.37-6.63-2.75-6.89,2.47,18.91,101.87,38.7,206.3,59.41,307.57-.75-.4,15.58,1.45,18.79,1.45Z"/>
  <path d="M874.98,899.4c18.09,32.17-646.92,4.14-649.58,13.06-5.38-4.39-5.3-10.27-6.38-16.12l-6.92-37.69c-1.02-6.01-6.46-15.73-.85-20.99,0,0,664.94-.02,664.94-.02,9.24.09,12.06.94,8.8,10.51-2.18,15.14-7.01,36.18-10.02,51.24Z"/>
</svg>