<?xml version="1.0" encoding="UTF-8"?>
<svg id="Camada_1" data-name="Camada 1" xmlns="http://www.w3.org/2000/svg" viewBox="0 0 1080 1080">
  <path d="M542.01,874.98c-7.75,1.22-24.96-1.55-30.4,4.31-6.14,6.16-12.88,15.89-19.18,21.87-17.66,20.04-41.82,52.39-61.83,70.21-21.44-9.41-45.82-19.37-66.88-29.63-22.69-10.04-47.8-20.72-69.72-32.3-.08-32.05,9.67-70.6,14.59-102.39,0,0,4.52-22.12,4.52-22.12,1.2-5.87-1.95-9.19-5.13-12.97l-25.6-30.42c-4.47-4.43-7.64-13.33-14.57-13.66-32.79-2.2-87.48-.96-119.92-1.78-6.1-.06-12.31-2.13-12.3-9.54-2.43-12.05-8.63-41.4-10.75-54.09-4.31-20.09-9.92-48.14-14.25-68.09-.83-20.8-16.57-29.62,9.97-39.05,6.92-3.29,20.73-9.48,27.72-12.47,6.21-3.51,18.95-10.19,25.37-13.35,6.26-3.04,18.89-8.99,25.12-11.95,6.27-3.21,17.84-6.83,19.71-14.63,3.3-13.73,5.1-30.58,8.28-44.22,1.61-5.64,4.86-12.61,1.41-18.2-6.82-11.26-15.94-24.22-23.68-34.87-9.98-12.14-20.18-26.93-28.75-40.07,0,0-6.18-8.92-6.18-8.92-2.32-3.84-12.52-13.79-10.23-18.98,23.87-35.47,51-70.37,75.68-105.28,4.72-5.17,10.49-18.8,18.49-19.69,0,0,8.93,3.42,8.93,3.42,0,0,19.32,6.71,19.32,6.71,12.73,5.35,29.02,9.7,41.24,16.09,14.49,5.09,35.68,11.89,49.7,18.17,13.08-5.22,27.03-13.45,39.71-19.27,23.1-11.04,19.5-7.86,26.44-32.54,5.5-19.56,13.2-40.97,18.37-60.65,2.04-11.32,6.04-25.71,8.37-36.9.52-3.7,2.88-8.23,7.82-8.23l149.2-.05c2.33,0,6.35,1.66,6.77,3.35,5,19.94,11.93,47.55,17.62,67.31,4.67,16.18,12.56,39.47,16.19,55.86,6.28,5.6,8.38,6.69,16.12,9.02,10.95,6.06,26.29,12.99,37.35,18.67,9.39,4.75,21.8-2.6,30.93-5.31,21.61-7.04,44.77-17.98,66.4-24.81,6.45-.84,30.24-14.69,35.93-7.5,0,0,7.79,11.51,7.79,11.51,10.07,14.42,24.04,33.12,34.79,47.24,14.76,20.83,29.49,43.64,45.36,63.66.56,7.8-10.8,18.08-14.81,24.62-10.1,13.58-20.94,29.33-31.55,42.54-6.87,9.56-15.83,21.06-22.11,30.98-2.21,3.45-5.02,7.61-3.9,12.01,0,0,5.07,20.08,5.07,20.08,1.08,7.86,5.29,26.91,7.22,34.82,1.59,6.96,9.38,8.63,14.6,11.1l12.39,5.86c16.1,7.36,34.65,17.49,50.33,25.69,6.08,2.69,19.43,8.61,25.36,11.55,15.22,4.53,10.17,14.03,6.96,25.6-1.8,11.25-6.3,33.77-9.12,44.83-4.23,15.79-7.8,39.2-11.7,55.06-2.14,9.43-2.66,18.36-5.46,27.75-2.04,12.58-2.23,17.39-17.06,15.06-21.32.93-91.97.35-114.46,1.05-8.15.24-11.4,10.13-16.31,15.08,0,0-13.85,16.21-13.85,16.21-3.72,3.57-10.37,11.36-13.52,15.36-3.79,4.56-5,8.95-2.72,15.19,5.07,17.96,8.76,47.51,11.35,66.09,2.2,11.6,6.07,37.96,7.54,49.67,1.03,6.27-9.04,8.16-12.63,11.03-6.86,2.86-21.13,10.18-28.01,13.05-31.67,14.18-64.9,30.15-97.4,42.36-10.78-8.68-20.32-21.87-28.97-32.53-10.86-12.6-33.36-38.86-44.25-51.62-3.66-4.46-8.02-11.45-14.71-11.3-6.8-.91-26.99-.6-34.08-.67ZM500.56,839.93l90.22-.25,4.69-.53s6.18,3.98,6.18,3.98c6.88,8.38,21.59,26.55,28.08,34.96,5.69,6.67,22.5,26.45,28.17,32.61,3.31,3.07,9.5,10.38,12.3,13.98l7.33,2.47c3.8-1.26,13.08-6.37,16.75-8.27,17.75-6.69,35.99-16.47,53.25-24.39,26.16-7.75,10.72-22.82,10.07-44.34-1.74-14.56-6.33-31.39-7.92-46.14-1.88-12.2-4.75-23.7-4.57-36.29.05-3.74,5.23-7.68,7.41-10.08,4.66-5.09,18.34-20.8,22.92-26.3,9.89-11.53,22.27-31.22,34.57-40.35,26.79-.47,85.75-1.08,112.98-1.1,1.39-.17,4.81-1.43,5.43-2.87,6.59-16.69,9.26-43.67,13.33-61.49,2.62-8.37,5.54-26.68,6.51-35.47.69-4.92-1.27-8.14-5.47-10.11-13.54-6.39-30.36-13.76-43.37-21.15-17.25-8.64-36.35-17.82-53.09-27.39-6.85-30.47-16.55-68.23-19.12-98.94,0,0,26.06-37.19,26.06-37.19,5.05-6.57,19.58-23.22,23.59-30.19,7.2-11.41,20.95-23.17,8.55-36.56-14.72-20.5-31.29-43.24-45.18-64.38-6.66-13.14-18.47-4.54-28.17-.88-6.79,1.97-21.8,8.08-28.46,10.83-4.23,1.62-19.41,5.99-23,8.47-8.84,3.71-25.74,7.84-34.11,11.74-6.55,3.98-10.39-.05-15.7-2.73l-10.57-5.33c-12-5.56-28.37-13.78-40.2-19.74-4.28-2.21-15.76-7.53-20.5-8.68,0,0-8.2-7.84-8.2-7.84-.7-9.88-4.09-18.04-6.44-27.19-4.64-18.85-11.85-44.58-18.22-62.91-2.34-6.53-1.58-21.16-10.89-22.26-29.66-.73-67.1-1.39-96.58.16-3.76.12-6.73,6.39-7.03,9.59-.75,8.04-4.48,14.15-6.44,21.41-4.75,18.03-12.1,43.16-15.97,61.32-2.59,6.73-4.63,12.51-5.09,19.87,0,0-7.32,7.32-7.32,7.32-6.41,1.73-11.14,3.6-16.57,6.63-5.91,3.52-19.27,10.34-25.59,13.32-5.58,3.43-13.37,6.56-19.4,8.76,0,0-11.87,6.34-11.87,6.34-3.81,2.04-6.83,5.16-12.41,3.05-22.03-7.95-46.14-18.62-68.53-25.31,0,0-13.81-5.28-13.81-5.28-11.27-4.75-26.25-14.83-33.88.66-12.16,17.27-26.26,37.49-38.57,54.76-4.99,7.59-16.44,16.71-10.31,26.8,2.79,3.19,7.86,10.97,9.95,14.73,15.85,23.45,36.35,46.18,51.12,70.3,2.31,9.05-2.04,17.34-3.66,25.65,0,0-5.38,27.62-5.38,27.62-1.54,10.54-5.62,33.87-8.38,44.07-1.04,4.54-7.81,6.92-11.88,7.59-3.86.63-6.27,3.39-9.15,4.79-6.35,2.84-19.13,9.55-25.22,12.9-6.15,3.11-19.46,10.33-25.77,13.11-9.69,5.71-24.91,8.41-32.06,17.68,3.17,19.91,9.01,46.68,12.76,66.43,0,0,6.6,31.49,6.6,31.49.74,3.53,2.27,6.48,6.7,6.51,25.2.43,88.49.24,112.74,1.41,4.46.11,8.61,5.68,10.94,8.48,10.84,12.67,21.91,27.93,32.4,40.87,3.91,4.51,13.59,15.06,17.51,19.3,7.02,5.29,4.87,14.26,4.06,21.71-5.44,31.15-11.23,65.63-17.4,96.53-1.37,6.59,1.88,11.32,8.31,14.04,5.17,2.18,16.07,6.79,21.44,8.37,7.02,3.69,21.65,10.37,29.02,13.38,0,0,12,5.66,12,5.66,8.4,4.75,17.61,11.54,25.09,1.1,11.99-14.74,31.78-35.87,43.12-50.88,0,0,17.08-20.06,17.08-20.06,2.71-3.18,6.53-9.85,12.18-9.87Z"/>
  <path d="M615.99,679.46l-8.37,9.29c-14.21.21-94.35-.15-106.4,1.44-15,1.82-26.46-18.88-36.29-27.16-19.19-19-44.61-44.34-61.83-65.21-.42-31.52-.47-81.3-.06-112.78,7.09-8.39,19.21-19.24,27.07-26.84,16.14-16.77,40.91-40.8,57.71-57.12,4.6-5.48,30.6-1.67,36.76-2.42,25.33.45,53.7-.05,79.19-.32,8.08.38,16.13,13.18,21.76,18.44,2.9,2.98,8.95,9.02,11.98,11.91,17.31,17.53,37.85,38.29,55.55,55.47l-.05,114.33c-21.53,27.86-53.02,55.25-77.02,80.98ZM614.77,630.29c12.27-13.54,27.6-30.39,41.12-42.74.55-6.79.26-74.76.17-83.5,2.05-8.78-33.78-37.52-38.12-43.86-2.91-3-8.96-9.13-11.92-12.12-5.02-4.05-8.71-11.88-16.11-11.98-13.61-.6-49.79-.61-63.85-.71-8.15,1.3-22.33-1.5-27.92,5.88-12.43,12.63-45.16,46.29-58.11,59.18l-.04,87.08c6.87,6.49,16.88,15.39,23.5,22.02,8.54,9.8,24.5,26.27,33.26,35.8,2.3,2.46,6.43,6.49,10.32,6.5l75.84.18c13.09,1.82,23.4-14.38,31.84-21.73Z"/>
</svg>