<?xml version="1.0" encoding="UTF-8"?>
<svg id="Camada_1" data-name="Camada 1" xmlns="http://www.w3.org/2000/svg" viewBox="0 0 1080 1080">
  <path d="M217.64,944.18c-18.3,5.42-40.3,13.06-58.71,18.14,0,0-20.78,6.58-20.78,6.58-1.19.38-3.34.92-4.36.95-1.02.03-3.02-2.62-2.67-3.66,0,0,4.32-12.8,4.32-12.8,4.13-15.1,11.33-36.9,15.11-52.25,2.93-5.65,4.58-11.72,5.71-18.17,5.11-15.17,12.76-34.45,17.1-49.59,1.63-9.98,7.84-27.37,10.44-37.43,1.87-7.01,6.26-20.8,8.83-27.6,2.22-6.9,6.3-23.38,9.22-29.53,5.18-20.59,15.26-46,20.99-66.7,32.61-33.49,75.18-75.29,107.85-109.07,22.3-24.49,48.21-48.89,71.35-72.64,15.34-15.57,32.97-33.01,47.91-48.96,21.23-20.79,46.05-45.84,66.89-66.98,87.78-89.99,183.2-183.53,270.81-273.7,14.08-13.15,11.06-20.27,34.87-10.94,10.2,1.67,31.05,7.8,41.2,10.1,6.04,1.97,20.26,4.73,24.25,10.98,20.81,24.46,55.34,56.9,77.44,79.82,6.44,6.23,14.75,15.6,21.03,22.03,3.47,4.83,12.04,9.16,12.41,15.77,0,0,.05,72.5.05,72.5.06,7.3-8.64,11.53-12.67,16.38-30.86,31.57-67.19,65.41-97.4,97.41-61.78,60.59-126.64,125.53-187.78,186.88-78.07,77.36-182.55,179.12-259.59,257.96-24.19,25.51-20.01,20.15-52.61,29.94-26.2,9.24-56.48,17.77-82.94,26.26-5.93,2.49-18.2,6-24.43,7.62-19.48,6.73-44.24,14.27-63.83,20.7ZM919.17,335.7c7.25-7.41,20.58-21.41,27.91-28.43,4.18-3.89,14.72-13.91,17.87-18.53,0,0,0-42.57,0-42.57.22-6.14-5.78-11.49-9.47-15.52-13.41-12.96-31.64-31.76-44.34-45.6-8.14-8.82-18.66-19.48-27.06-27.95-16.18-17.79-21.56-22.42-35.28-23.61,0,0-19.33-6.95-19.33-6.95-3.78-1.36-9.13-5.31-13.37-3.39-10.61,7.28-57.23,58.35-67.94,67.86-3.51,4.14-14.18,14.86-17.28,19.24,17.24,20,39.75,40.8,58.12,59.87,29.64,30.17,63.7,65.37,94.32,94.83,8,2.31,19.42-14.01,24.56-18,2.9-2.7,8.56-8.36,11.29-11.25ZM280.76,663.52l-24.01,24.54c-3.29,7.1,29.45,35.57,35.34,42.08,16.18,15.95,42.81,41.3,57.24,58.64,17.83,17.13,38.67,38.73,56.93,55.28,112.98-108.73,228.09-226.18,339.43-336.63,18.55-17.9,38.98-38.44,57.04-56.8,9.87-9.42,29.57-29.03,39.21-38.78,0,0,10.41-11.44,10.41-11.44,1.94-2.14,8.23-6.35,5.07-9.98-44.9-50.43-99.95-100.2-146.45-149.24-1.72-1.73-6.45-5.78-8.89-3.38-11.99,11.82-31.81,31.08-43.02,43.17-13.26,14.09-28.82,28.77-42.36,42.53-7.64,7.44-15.8,17.17-23.51,24.55-17.03,16.47-35.71,33.67-51.48,51.38-15.36,15.63-32.74,32.15-47.73,48.17-23.17,22.54-47.84,47.26-70.12,70.7-45.78,45.82-98.31,98.14-143.12,145.22ZM297.19,883.29c12.91-3.55,31.18-9.41,43.62-14.05,0,0,18.37-6.91,18.37-6.91,8.85-1.73,10.36-5.23,3.67-11.98-18.5-19.66-42.01-42.84-61.5-61.65-16.61-19.76-39.78-40.33-58.38-58.37-5.56,7.45-7.9,15.94-10.12,24.92-3.46,9.17-5.89,20.04-9.48,28.86-8.46,27.56-17.34,58.85-26.21,86.23-3.49,8.63.86,13.8,7.38,19.36,0,0,14.56,14.28,14.56,14.28,6.34,4.3,18.07-2.93,24.66-4.26,15.92-4.22,37.47-12.12,53.43-16.44Z"/>
</svg>