<?xml version="1.0" encoding="UTF-8"?>
<svg id="Camada_1" data-name="Camada 1" xmlns="http://www.w3.org/2000/svg" viewBox="0 0 1080 1080">
  <path d="M785.14,824.3c12.4,17.29,31.42,44.33,44.37,61.12,28.61,35.44,23.34,23.32,23.44,68.29-13.46,1-31.21.76-44.28.37,0,0-574.38-.11-574.38-.11-4.61,0-7.14-4.22-6.8-8.21,1.1-12.93-1.36-20.75.08-26.54,3.61-10.95,16.49-24.47,23.31-33.56,19.69-27.15,50.82-69,70.38-95.32,43.14-57.02,88.6-118.52,131.41-175.72,12.92-18.43,43.1-54.02,53.64-73.01-2.7-7.85-11.26-16.17-15.8-23.12-40.76-52.47-82.8-111.95-123.33-164.59-14.38-19.08-35.73-49.99-50.49-68.6-7.9-12.18-18.98-26.44-27.98-37.87-16.3-21.14-33.83-47.64-50.6-68.4,0,0-6.59-8.78-6.59-8.78-1.37-1.83-3.34-6.01-4.37-8.25,0,0-.11-28.2-.11-28.2-.01-3.13,3.3-6.74,7.34-6.74,0,0,616.86.02,616.86.02,4.11,5.54,2.3,11.25,2.18,17.16,0,0-.38,18.82-.38,18.82-.1,5.47-6.91,11.65-9.85,15.95,0,0-5.7,8.44-5.7,8.44-15.58,19.44-32.83,44.61-47.72,64.43-16.94,23.84-38.52,49.84-55.09,73.98-23.49,31.14-47.65,63.54-70.62,95.02-23.12,30.56-52,69.24-74.78,100.5,0,0-6.77,9.14-6.77,9.14-2.75,3.71-5.84,5.48-6.01,10.85-.1,3.27,2.97,7,5.53,10.51,3.08,4.3,9.54,12.95,12.74,17.2,12.71,15.7,26.06,34.72,38.13,50.93,9.72,12.41,22.15,29.05,31.05,42.03,13.85,16.53,26.79,36.81,40.63,53.42,9.38,11.65,20.39,28.46,29.28,40.5,13.66,19.08,37.43,49.62,51.27,68.32ZM500.49,481.03c12.98,16.82,27.25,37.02,41.62,52.69,10.94-14.77,25.95-36.3,36.39-51.38,15.8-20.09,32.81-42.45,47.73-63.14,27.18-40.25,62.2-80.64,88.86-121.07,20.31-25.65,43.29-56.86,62.72-83.26,9.38-11.79,22.4-28.96,30.7-41.39,3.22-3.43,5.3-6.68,6.33-11.51-5.95-6-539.55.25-546.44-1.95-4.46,1.58-3.26,2.4-1.26,5.7,8.15,10.93,18,24.16,25.55,35.55,4.2,5.32,20.35,25.28,23.83,30.3,3.07,5.02,11.52,15.9,15.3,20.58,12.76,16.86,27.55,39.22,40.33,55.8,16.51,21.01,33.27,43.5,48.24,65.64,17.71,22.39,38.07,51.55,55.97,73.93,7.32,10.63,16.22,23.29,24.13,33.51ZM660.71,920.98c17.34,1.99,82.16-.47,100.67.55,9.47-.5,38.65.94,47.75-.58,4.54-.23,5.86-2.88,3.58-6.92,0,0-21.38-29.37-21.38-29.37-18.27-21.9-37.47-48.77-53.75-72.17-10.62-13.67-23.76-31.18-34.06-44.95-16.7-21.82-36.57-50-53.06-71.99-9.82-13.19-22.66-29.42-31.94-43.04-16.2-20.84-33.36-45.27-50.13-65.76-6.21-9.28-19.46-27.69-26.24-36.61-6.66,4.38-10.59,11.75-15.55,17.49-4.75,6.22-11.39,14.92-15.51,21.57-16.47,21.99-41.06,54.67-57.38,76.69-7.83,10.15-16.98,22.69-25.02,32.64-10.35,14.36-23.65,33.44-34.98,47.11-15.6,22.67-36.54,46.63-51.32,69.68-7.04,9.55-17.46,22.21-23.8,32.29-15.56,20.55-35.34,45.91-50.7,66.46,0,0-2,3.42-2,3.42-.49.83,1.33,3.43,2.51,3.46,30.4.99,353.4-.18,392.33.02Z"/>
</svg>