<?xml version="1.0" encoding="UTF-8"?>
<svg id="Camada_1" data-name="Camada 1" xmlns="http://www.w3.org/2000/svg" viewBox="0 0 1080 1080">
  <path d="M312.77,879.36l-9.92,7.33-19.57,15.56-7.63,5.44-20.48,16.46-11.82,9.09-16.37,11.89-11.3,9.45-13.85,11.27-6.37,4.64c-1.68-.31-2.31-3.56-1.61-5.52l5.39-15.02,5.41-15.5,5.64-15.43,4.84-13.05,3.76-11.16,3.57-10.11,5.68-15.18,4.46-11.76,5.62-15.28,5.52-15.51,4.67-12.4,5.68-13.39,3.12-9.14,4.88-13.27,5.06-13.8,5.77-16.42,3.95-10.87,6.05-17.09,4.89-13.05,5.71-14.26,4.95-12.04,5.86-15.18,4.61-12.33,5.12-14.02,5.17-12.66,5.01-13.03c2.68-6.95,5.56-13.26,6.24-21.24l-40.23-39.91-13.75-13.42-10.46-9.44-25.06-24.11-12.13-11.76-11.78-11.15-10.63-9.51-13.34-13.53-17.51-17.52-21.22-19.88c-.86-.8-2.07-2.3-2.5-3.16-2.45-4.91,27.81-7.35,40.48-9.23l33.91-5.04,27.35-3.49c8.79-1.12,17.1-2.64,25.88-3.83l21.49-2.9,29.55-4.39,20.76-2.77,35.87-5.25,20.6-2.78,22.17-4.02c4.65-.84,8.05-8,9.99-11.41l4.88-8.58,5.64-10.42,4.92-9.06,4.91-9.05,8.67-15.18,3.83-7.04,5.97-11.06,5.49-9.57,28.05-48.14,6.13-10.93,4.97-9.01,4.97-9.02,4.9-9.09,19.04-31.77,4.94-9.06,4.55-8.41,5.56-10.46,6.14-10.87,20.66-34.36,4.65-8.28,5.05-8.99,6.14-10.97c2.06-3.68,3.14-8.18,9.29-6.67l.87,8.77,3.75,28.18,4.42,38.66,3.25,22.74,3.84,22.86,3.19,24.14,2.95,22.85,3.39,23.56,4.09,29.03,3.4,24.84,5.19,39.35c3.44.76,6.51.94,9.82.4l20.59-3.39,44.99-5.8,34.44-4.74,23.51-2.86,36.41-5.63,29.21-3.68,21.86-2.89,12.5-1.45,26.18-3.81,24.65-2.79c11.1-1.26,21.26-5.27,33.65-2.79l-23.49,23.14-29.96,29.05-30.89,30.06-19.13,17.94-25.17,23.8-17.58,17.58-23.78,23.01-17.52,16.61-25.38,24.65-12.14,11.64-6.08,6.1-25.7,25.17-17.24,16.79-11.41,11.71c-2.58,2.65-.69,10.17-.14,13.91l4.01,27.13,1.31,14.89,4.41,31.55,3.08,20.76,3.83,30.46,3.02,21.82,4.19,28.4,1.37,13.06,4.46,33.24,4.14,28.86,3.34,24.95c1.11,8.28,2.74,15.48,3.38,23.9l.68,8.97,4.19,28.99c.44,3.03.33,5.4-1.35,8.07l-22.7-19.31-12.55-11.27-17.95-15.12-17.64-15.34-11.1-10.07-32.09-27.77-8.47-7.6-9.51-8.53-8.9-7.07-9.94-9-15.13-13.01-24.81-20.9-10.28-9.12-12.99-11.73-21.38-18.04c-2.38-.37-5.83,1.74-7.82,3.35l-14.42,11.64-14.59,10.6-13.46,10.46-21.03,16.92-12.46,9.59-12.98,10.01-18.4,14.52-8.09,6.09-27.53,22.28-17.43,13.66-17.5,14.09ZM432.89,705.85l15.85-12.04,19.54-15.55,13.4-10.5,10.66-8.44c3.21-2.54,6.9-4.62,10.79-1.17l17.43,15.45,12.61,11.25,23.34,19.87,21.95,18.84,10.59,9.32,5.98,5.26,27,22.78,7.69,6.34,20.01,16.89c2.48-3.12,2.09-5.71,1.54-9.26l-2.52-16.3-5.32-38.55-2.79-27.93-3.67-28.15-3.65-23.06-3.9-29.44-2.8-22.16-2.18-23.81c-.28-3.07-2.32-7.83.5-10.67l21.38-21.5,11.02-10.05,7.16-6.6,22.71-21.53,26.4-25.49,16.47-15.63,22.28-21.55,17.82-16.33,19.69-19.31,4.19-3.21-3.85-3.38-13.26,1.06-10.65,1.14-26.57,4.2-24.74,3.05-30.57,3.9-21,2.89-25.6,4.12-12.75,1.23-12.97,1.13c-4.6.4-6.38-2.03-6.95-6.02l-4.92-33.88-3.85-28.07-1.34-14.05-3.53-22.2-4.02-30.32-2.77-19.31-.7-9.23c-.18-2.39-.56-3.91-1.9-6.76-4.42,4.69-6.38,8.22-9.09,13.09l-5.33,9.58-4.99,8.87-13.12,22-5.3,9.44-4.96,9.05-5.57,10.44-5.03,8.94-5.41,9.62-5.2,8.92-5.35,8.4-5.47,9.65-5.1,9.01-5.15,9.67-4.42,8.74-5.28,9.66-5.99,10.97-5.25,8.97-4.42,5.69c-14,2.76-27.27,4.44-41.34,5.66-6.91,2.14-13.91,3.21-21.29,3.9l-9.96.93-70.29,10.7c-13.95,2.12-26.67,5.17-40.84,5.62.25,2.3,1.01,4.99,2.2,6.17l34.68,34.25,11.11,10.03,11,10.09,24.13,23.84,17.02,14.95,16.71,16.2-7.46,20-4.61,11.32-5.08,12.98-5.21,13.7-5.48,14.57-4.41,11.7-5.89,15.05-5.01,11.98-5.02,12.97-5.7,15.32-5.32,13.68-4.25,10.73-5.74,14.28-5.37,13.55-5.92,16.1c-.35.95.18,4.01,1.13,3.92.77-.07,2.96-.63,3.64-1.18l9.76-7.82,9.23-6.95,21.56-17.5,7.31-4.67,24.25-19.59,21.24-15.92,10.46-8.54Z"/>
</svg>