<?xml version="1.0" encoding="UTF-8"?>
<svg id="Camada_1" data-name="Camada 1" xmlns="http://www.w3.org/2000/svg" viewBox="0 0 1080 1080">
  <defs>
    <style>
      .cls-1 {
        fill: #fff;
      }
    </style>
  </defs>
  <polygon class="cls-1" points="445.5 774 531 472.5 670.5 441 670.5 445.5 535.5 481.5 454.5 774 445.5 774"/>
  <g>
    <path class="cls-1" d="M-54,1093.5V13.5h1080v1080H-54ZM619.06,129.17c-9.49-9.7-19.12-22.97-34.22-21.09-46.35-.06-196.44.23-240.15.75-13.35-.57-109.56.18-120.68-.55-4.46-1.01-9.17-.31-12.01,3.79v833.16c0,3.84,3.76,5.65,7.27,5.65h568.44c4.05,0,6.91-1.02,10.51-2.7-3.43-8.17,6.63-638.28-3.53-643.88,0-.02-175.63-175.13-175.63-175.13Z"/>
    <g>
      <path d="M619.06,129.17s175.62,175.11,175.62,175.11c10.17,5.62.11,635.73,3.54,643.9-3.6,1.69-6.46,2.7-10.51,2.7H219.27c-3.51,0-7.27-1.81-7.27-5.65V112.07c2.84-4.09,7.55-4.8,12.01-3.79,6.66,1.51,12.39-.02,19.03.02,41.25.21,123.96.94,164.13-.04,0,0,177.67-.18,177.67-.18,14.98-1.94,24.91,11.53,34.22,21.09ZM743.73,367.44s-.76-28.24-.76-28.24c-.09-3.41-2.54-5.76-6.12-5.76l-145.77.02c-3.18,0-4.81-2.42-4.98-5.29-4.39-53.95,2.58-108.33-1.37-162.27-11.29-2.44-303.27-1.74-313.82-.28-10.63-.43-.03,718.74-3.67,722.75,0,3.66,2.09,6.3,6.12,6.3,0,0,450.37.02,450.37.02,7.06,0,12.44-.6,18.78-2.28,3.78-123.39.15-398.79,1.23-524.98ZM696,280.3l23.63-1.27c.77-.04,2.69-1.55,2.42-2.27-18.87-23.69-64.92-63.97-86.52-85.88-2.92,22.58-.94,60.41-1.1,83.44.02,1.91,1.1,4.91,2.59,5.93l58.98.04Z"/>
      <g>
        <path class="cls-1" d="M743.73,367.44c-1.08,127.45,2.55,400.52-1.23,524.98-6.34,1.68-11.72,2.28-18.78,2.28l-450.37-.02c-4.03,0-6.11-2.64-6.11-6.31,3.71-4.32-7.01-722.9,3.65-722.73,10.6-1.39,302.48-2.22,313.83.27,3.95,53.93-3.02,108.32,1.37,162.27.17,2.87,1.8,5.29,4.98,5.29l145.77-.02c3.58,0,6.03,2.35,6.12,5.76,0,0,.76,28.24.76,28.24ZM481.43,496.05c-5.53,20.65-21.73,80.51-25.43,100.6l96.43.09-.48,8.28-100.62.18-50.36,181.57,40.34.02,40.63-141.11h101.93s24.93-89.1,24.93-89.1l-100.12-.22,5.9-26.57,137.5-37.36,26.22-96.02-235.28,60.4-94.69,329.9,43.32.11c9.41-36.32,73.92-259.6,85.18-300.39,17.49-4,126.12-28.37,140.65-32.19l-.97,5.52c-16.28,4.38-121.41,32.61-135.08,36.3Z"/>
        <path class="cls-1" d="M696,280.3l-58.98-.04c-1.5-1.02-2.58-4.02-2.59-5.93.16-23.2-1.82-60.68,1.1-83.44,21.68,22,67.59,62.13,86.52,85.88.27.72-1.65,2.23-2.42,2.27l-23.63,1.27Z"/>
        <path d="M481.43,496.05c13.15-3.55,119.41-32.09,135.08-36.3l.97-5.52c-13.96,3.69-123.8,28.33-140.65,32.19-11.67,42.2-75.45,262.94-85.18,300.39l-43.32-.11,94.69-329.9,235.28-60.4-26.22,96.02-137.5,37.36-5.9,26.57,100.12.22-24.93,89.11h-101.93s-40.63,141.1-40.63,141.1l-40.34-.02,50.36-181.57,100.62-.18.48-8.28-96.43-.09c3.63-19.8,19.98-80.27,25.43-100.6Z"/>
      </g>
    </g>
  </g>
</svg>