<?xml version="1.0" encoding="UTF-8"?>
<svg id="Camada_1" data-name="Camada 1" xmlns="http://www.w3.org/2000/svg" viewBox="0 0 1080 1080">
  <defs>
    <style>
      .cls-1 {
        fill: #fff;
      }
    </style>
  </defs>
  <path class="cls-1" d="M45.28,655.14v-355.51h989.45v355.51H45.28ZM233.62,485.2h-84.63s-2.52,6.53-2.52,6.53l-25.9,90.87-16.06,55.89h35.09s16.06-55.79,16.06-55.79l18.4-63.71,86.2.02,21.02-75.05h-84.87s5.07-22.91,5.07-22.91l116.35-31.58,22.58-81.17-199.03,51.22-63.97,222.89-16.17,56.07h35.02s72.76-252.11,72.76-252.11l93.03-23.71,31.38-8.02-1.73,6.5-94,25.85-24.43,6.6-14.75,59.01-2.75,10.88-3.75,14.07h84.2s-2.6,7.64-2.6,7.64ZM453.65,438.19l-56.81,34.67-22.91,116.86h-34.03s29.58-153.17,29.58-153.17l-57.07,36.44-33.36,165.86h136.66s37.96-200.65,37.96-200.65ZM1018.25,440.61l-74.74-.02-25.6,35.39-15.77-35.39-71.25.03,47.19,107.48-17.34,91.03,63.62.03,15.53-85.06,78.34-113.48ZM551.22,638.8l23.95-135.36,29.19-.06,46.82-62.39h-153.86s-45.09,62.41-45.09,62.41l60,.05-23.95,135.37,62.94-.02ZM721.97,638.8l23.95-135.37,29.18-.05,46.29-61.69c.21-.3.14-.75-.2-.71h-153.13s-45.08,62.4-45.08,62.4l60,.05-23.95,135.37,62.94-.02Z"/>
  <polygon points="233.62 485.2 236.21 477.57 152.01 477.56 155.76 463.49 158.51 452.61 173.26 393.61 197.69 387.01 291.69 361.15 293.42 354.66 262.04 362.67 169 386.38 96.24 638.5 61.23 638.49 77.4 582.42 141.37 359.53 340.4 308.31 317.82 389.47 201.48 421.05 196.41 443.95 281.28 443.96 260.26 519.01 174.05 518.98 155.66 582.7 139.6 638.5 104.51 638.49 120.57 582.61 146.47 491.73 148.99 485.19 233.62 485.2"/>
  <path d="M453.65,438.19l-37.96,200.65h-136.66s33.36-165.85,33.36-165.85l57.07-36.44-29.58,153.16h34.03s22.91-116.84,22.91-116.84l56.81-34.67ZM420.31,486.58l-2.19,1.25-24.63,125.62h-82.37s24.47-126.77,24.47-126.77c-.91.18-1.49.62-1.98,1.36l-25.56,127.06h87.95s24.31-128.51,24.31-128.51Z"/>
  <path d="M1018.25,440.61l-78.34,113.48-15.53,85.06-63.62-.03,17.34-91.03-47.19-107.48,71.25-.03,15.77,35.39,25.6-35.39,74.74.02ZM913.08,536.03l9.15-12.1,39.16-53.54c-1.12-.36-2.1-.35-2.94,0l-46.69,64.61-28.83-64.83-3.3.13,30.68,65.38-1.56,8.92-12.29,65.01,3.27-.04,12.1-66.12,1.25-7.41Z"/>
  <path d="M551.22,638.8l-62.94.02,23.95-135.37-60-.05,45.09-62.4h153.86s-46.82,62.39-46.82,62.39l-29.19.06-23.95,135.36ZM526.71,609.12l23.88-134.97h39.08s2.75-3.89,2.75-3.89h-79.96s-2.84,3.87-2.84,3.87l37.57.04-23.92,135.15c1.11.26,2.2.33,3.45-.2Z"/>
  <path d="M721.97,638.8l-62.94.02,23.95-135.37-60-.05,45.08-62.4h153.13c.33-.04.4.41.2.71l-46.29,61.69-29.18.05-23.95,135.37ZM697.46,609.12l23.88-134.97h39.08s2.75-3.89,2.75-3.89h-79.96s-2.84,3.87-2.84,3.87l37.57.04-23.92,135.15c1.11.26,2.2.33,3.45-.2Z"/>
  <path class="cls-1" d="M420.31,486.58l-24.31,128.52h-87.95s25.56-127.07,25.56-127.07c.5-.74,1.08-1.18,1.98-1.36l-24.47,126.76h82.37s24.63-125.6,24.63-125.6l2.19-1.25Z"/>
  <path class="cls-1" d="M913.08,536.03l-1.25,7.41-12.1,66.12-3.27.04,12.29-65.01,1.56-8.92-30.68-65.38,3.3-.13,28.83,64.83,46.69-64.61c.83-.34,1.82-.35,2.94,0l-39.16,53.54-9.15,12.1Z"/>
  <path class="cls-1" d="M526.71,609.12c-1.25.53-2.34.46-3.45.2l23.92-135.15-37.57-.04,2.84-3.88h79.96s-2.75,3.9-2.75,3.9h-39.08s-23.88,134.97-23.88,134.97Z"/>
  <path class="cls-1" d="M697.46,609.12c-1.25.53-2.34.46-3.45.2l23.92-135.15-37.57-.04,2.84-3.88h79.96s-2.75,3.9-2.75,3.9h-39.08s-23.88,134.97-23.88,134.97Z"/>
</svg>