<?xml version="1.0" encoding="UTF-8"?>
<svg id="Camada_1" data-name="Camada 1" xmlns="http://www.w3.org/2000/svg" viewBox="0 0 1080 1080">
  <path d="M732.08,984.14l-12.26,9.61c-100.81,1.79-210.89.45-311.7.61-32.53,2.47-30.73-3.38-53.32-22.09-15.51-11.96-71.15-61.56-86.67-74.67-32.11-27.48-71.48-59.43-101.35-89.49-3.49-12.28-10.49-27.59-15.32-39.24-7.36-17.25-14.84-36.89-22.5-53.78-1.98-7.24-7.65-23.64-10.58-30.74-9.86-25.73-22.01-53.17-31.7-79.02-5.15-17.89-14.45-37.14-21.9-54.06,0,0-5.11-13.93-5.11-13.93-1.63-4.45-5.58-8.91-2.83-13.76,1.34-2.36,2.75-5.22,3.77-7.91,8.08-22,18.89-47.84,29.05-68.97,1.87-7.24,6.23-13.81,8.22-20.84,1.13-5.35,3.17-9.46,5.81-14.18,4.17-15.11,12.99-32.21,18.12-47.09,6.98-17.56,13.94-37.52,22.25-54.71,6.18-12.74,9.96-26.62,16.78-39.05,3.4-5.39,1.8-12.75,10.45-20.39,16.3-13.97,35.79-33.13,52.76-46.24,15.75-12.38,43.28-37.86,59-50.13,12.82-10.02,27.81-24.16,40.11-34.88,13.82-11.85,41.21-34.96,54.82-47.13,113.83.55,227.93.79,341.83.07,31.35,25.13,65.21,56.06,95.56,81.63,32.87,26.89,72.46,63.26,105.31,90.12,15.45,8.79,16.98,28.94,24.69,43.42,8.43,23.15,19.58,50.38,29.15,73.05,4.88,16.92,13.9,33.93,19.59,50.58,8.76,19.16,15.71,43.17,24.13,62.61,3.43,7.29,10.22,22.48,13.32,29.94,0,0,5.65,14.2,5.65,14.2,5.87,6.23,5.27,16.01-.65,21.79-2.99,12.76-9.38,23.33-13.77,35.35-4.19,12.42-9.78,25.83-14.07,37.97-1.69,6.45-4.85,14.48-7.63,20.42-1.99,7.72-7.95,22.62-11.54,29.76-2.27,5.04-5.13,9.63-6.32,15.38-.85,4.07-3.66,7-5.02,10.93l-4.1,11.86c-5,12.23-9.97,25.32-14,37.97-6.68,15.82-13.16,32.44-19.73,48.28-1.18,4.68-3.09,8.29-5.72,12.39l-2.56,9.47c-32.47,31.22-72.3,63.94-106.24,93.7-29.61,25.52-62.96,57.17-93.82,81.2ZM293.89,277.76c23.3,4.94,48.3,10.87,71.78,14.86,3.84.68,10.37,5.32,13.99.88,5.87-7.06,11.1-23.37,14.81-31.86,8.28-17.23,13.35-37.75,21.25-54.96,6.98-23.7,19.86-47.5,29.6-70.2,2.09-4.65,3.16-9.64,6.35-13.91.84-1.12,2.08-4.62,1.01-5.46,0,0-4-3.14-4-3.14l-39.67.04c-12.43,2.74-14.32-2.58-25.02,7.05-12.11,10.81-37.99,34.05-50.98,43.86-20.98,15.38-48.05,43.28-69.06,58.95-12.86,10.28-25.77,23.69-39.06,33.42,5.7,7.75,19.02,9.73,30.16,11.7,12.9,3.86,25.09,6.83,38.85,8.75ZM483.64,302.39c32.64-.21,155.01-.79,185.25-1.46,6.6-9.17-.31-12.59-1.99-17.67-2.18-6.95-6.99-20.71-9.68-27.45-5.42-13.77-10.92-30.38-15.88-44.3,0,0-7.55-19.63-7.55-19.63-1.98-5.16-5.77-9.99-6.71-15.92-7.84-10.35-11.95-23.9-18.57-35.22,0,0-7.2-16.71-7.2-16.71-2.46-5.7-4.2-10.07-11.42-10.06,0,0-81.78.07-81.78.07-8.57.66-10.24,1.88-12.96,10.06-6.09,11.31-11.73,23.75-16.79,35.4-3.49,8.83-8.86,18.48-11.66,27.56-1.62,4.18-4.89,8.26-5.44,13.12-.5,4.44-3.8,7.8-5.25,11.48,0,0-7.13,18.12-7.13,18.12-4.95,17.46-13.51,34.52-19.43,51.75-2.08,5.6-5.49,11.31-4.3,17.16,1.11,5.44,5.46,3.9,9.04,3.69,17.02-1.34,32.17,1.13,49.44.01ZM850.16,267.3l21.93-6.84c1.03-.32,2.58-3.13,1.84-3.71-8.72-6.9-24.09-20.16-32.41-27.36-27.67-21.76-56.1-49.56-83.56-71.45-13.96-11.59-28.67-25.71-42.86-37.03-7.31-7.35-15.51-5.46-25.07-6.82,0,0-38.73.02-38.73.02-2.67,0-7.64,3.09-6.83,5.18,3.86,7.87,10.42,23.9,13.25,32.16,6.76,13.37,14.49,29.97,19.51,44.12,3.63,9.09,10.97,27.32,14.78,36.31,1.6,4.85,4.99,16.13,7.45,20.55,4.99,11.86,10.1,35.15,18.06,43.81,4.13,2.75,14.86-2.83,19.07-3.58,17.23-3.8,38.3-10.21,55.73-12.49,7.82-2.55,23.95-5.99,32.11-6.89,0,0,25.75-5.99,25.75-5.99ZM757.69,515.02c49.51-.24,180.18-.81,227.47.12,1.63.07,5.97-2.34,5.69-4.03l-1.26-7.61c-2.37-3.15-3.47-6.62-4.93-10.13-5.95-14.3-14.2-34.14-20.42-48.35-5.69-13.46-12.1-32.47-17.38-46.07-5.8-13.17-13.03-32.36-18.95-45.54-3.69-8.65-10.72-26.42-13.95-35.26-2.3-7.21-5.27-17.79-13.33-21.04-12.42,1.87-24.58,7.57-37.08,8.44-23.84,5-57.67,13.6-81.46,19.18,0,0-29.15,7.03-29.15,7.03l-17.05,2.06c-5,.15-7.42,3.31-7.12,8.01.37,15.47,2.71,38.08,5.86,53.34,2.29,24.15,4.73,55.62,8.21,79.8,1.31,11.97,1.14,26.48,3.92,38.23,3.42.91,6.59,1.83,10.91,1.82ZM173.99,514.54c58.8-2.01,117.56,2.75,176.12-1.19,3.79-9.49,2.67-21.01,4.37-31.01,4.32-23.59,4.71-50.27,8.44-73.64,4.37-21.16,4.24-42.77,7.98-63.97.67-4.08-3.88-10-7.87-10.35-10.49-.93-19.32-3-29-6.38-13.79-1.7-30.21-7.75-43.77-9.36-23.93-4.51-49.53-11.76-73.54-16.46-16.97-4.36-21.38-9.49-28.61,7-3.75,11.63-9.56,24.42-14.78,35.24-3.95,13.43-13.5,31.78-16.78,44.13-.9,4.49-3.68,8.41-5.4,12.13-12.67,27.09-23.65,55.87-33.41,84.05,0,0-6.02,15.31-6.02,15.31-1.45,3.68-4.13,7.31-3.74,12.04,21.11,4.29,44.11,2.78,65.99,2.45ZM705.11,512.08c-2.57-28.98-5.61-64.95-9.01-94.05-1.14-13.47-4.19-46.37-6.6-59.34-.84-5.77-1.09-12.14-5.67-16.69-65.77,1.1-142,.77-207.33.51-11.79-.59-23.22-.21-34.89.04,0,0-22.61.48-22.61.48-4.78.1-7.92,3.14-8.26,7.96-.37,15.4-5.9,39.67-6.74,55.03-1.07,13.56-2.37,32.2-3.4,45.74-2.84,12.28-4.64,23.35-5.2,35.71,0,0-.81,18.11-.81,18.11-1.1,5.6-.3,9.35,6.57,9.56,43.16-1.68,265.97,2.8,303.94-3.06ZM242.34,759.72c19.07-5.17,45.34-11.97,65.01-14.48,6.15-1.02,11.36-3.74,17.66-4.31,16.43-1.48,22.4-6.45,31.28-7.54,4.23-.52,8.06-1.3,11.83-3.29l2.98-7.95c-3.02-7.6-2.78-23.12-3.25-31.21-1.67-17.86-7.05-62.07-9.32-80.36,0,0-3.36-30.54-3.36-30.54-1.44-6.44.68-18.78-5.38-22.94-63.96-.71-165.89-.78-229.88-.11-10.71.31-6,8.65-2.64,14.64,12.4,38.15,28.36,77.74,44.76,114.34,3.57,11.9,9.6,25.24,13.63,37.01,4.05,10.24,9.15,28.23,14.65,37.63,1.28,2.18,2.63,6.83,4.72,8.18,8.7,1.01,16.35-.54,24.12-3.68,7.14-2.89,15.28-3.34,23.19-5.4ZM502.15,725.59c33.97.22,143.8-.87,175.99.65,3.48.2,9.06-1.33,9.56-5.27,2.29-18.9,7.39-57.43,9.08-76.23,2.16-20.66,7.09-62.35,9.35-82.94-1.87-5.82-9.26-5.67-14.21-5.24-56.86.22-225.89-.58-282.88-.31-5.92,1.12-15.26-1.16-14.08,8.72,1.39,19.38,3.36,43.26,6.71,62.48-.22,12.56,2.01,38.13,3.79,50.64.93,8.16,4.07,16.32,4.52,24.81,1.03,4.29-1.46,21.66,5.1,21.9,24.38,1.25,62.39.54,87.06.79ZM904.38,767.71s4.84-8.45,4.84-8.45c0,0,5.17-14.92,5.17-14.92,4.79-11.32,9.9-25.55,13.65-37.43,13.62-32.58,27.79-65.68,39.44-99.11,5.51-13.42,9.34-29.49,16.81-41.98,1.25-2.32.5-8.63-3.36-8.67,0,0-63.64-.6-63.64-.6-15.56-.04-147.98-.87-159.52.4-3.07.11-10.6.57-11.09,4.27,0,0-2.15,16.21-2.15,16.21-2.72,25.44-7.73,59.46-9.12,84.81-2.49,14.35-5.46,35.26-6.1,49.82,0,0-.23,17.15-.23,17.15-.02,1.81,3.94,3.73,5.72,3.99,12.29.81,24.52,6.26,36.57,7.45,21.98,6.09,53.29,11.86,75.84,16.21,11.96,5.22,25.01,5.04,37.29,8.68,6.31,2.48,12.81,5.72,19.88,2.16ZM605.44,935.3c8.47-18.49,15.7-39.69,23.95-58.22,5.39-11.11,11.1-24.72,15.55-36.18,5.45-11.98,11.22-26.35,14.85-39.18,0,0,4.15-10.84,4.15-10.84,1.1-6.53,9.46-13.82,6.87-20.06-3.13-5.27-29.5-2.36-34.49-3.33-3.79-.04-37.93-1.13-40.41.59-35.54-.83-126.09-1.02-162.01-.23-3.97-.09-9.06,1.88-7.53,6.64,2.96,5.46,4.01,11.33,6.26,17.01,6.07,15.04,13.77,37.95,19.47,53.21,8.63,21.9,18.49,45.47,26.71,67.45,2.76,5.89,8.31,19.04,11.31,24.72,3.99,8.36,6.89,17,16.03,16.35,8.54-1.72,78.34-1.03,88.75-1.27,5.09-2.15,7.55-12.32,10.55-16.67ZM397.49,952.1c6.74-.79,49.01,2.26,54-3.03,1.56-.85-.26-4.59-1.52-6.04-2.77-3.18-3.21-8.35-5.08-11.95-5.83-12.4-12.79-29.84-18.13-42.66-3-10.45-9.03-24.01-13.04-34.1-4.18-12.39-11.41-28.53-15.79-40.86,0,0-6.69-17.69-6.69-17.69-1.97-6.6-5.13-20.34-10.96-25.04-5.91-2.02-10.95,1.18-16.24,3.23-14.82,4.2-37.5,6.5-52.7,10.42-7.94,2.68-28.71,7.94-37.13,9.84-8.32,3.47-54.69,6.91-43.06,17.48,3.26,3.21,11.18,10.31,14.65,13.45,18.8,15.95,42.98,39.68,62.73,54.28,0,0,60.16,51.75,60.16,51.75,6.16,3.98,20.54,21.01,28.8,20.9ZM728.54,932.91c32.31-25.4,76.59-66.67,108.05-93.41,10.12-9.84,22.87-21.38,33.93-30.21-3.02-4.56-6.57-4.59-11.01-6-6.65-2.59-23.78-6.49-30.94-7.98-10.05-3.31-21.06-4.43-31.17-7.75-6.75-2.63-13.69-3.33-20.99-4-18.69-3.25-39.88-10.29-58.54-13.79-8.59,5.53-11.68,22.34-14.6,31.17,0,0-7.74,22.21-7.74,22.21-5.48,15.07-14.71,34.97-20.62,49.82-4.24,11.77-9.83,25.12-14.34,36.64-3.87,11.19-10.65,26.3-16.2,36.71-1.6,7.85,22.16,4.24,26.18,5.21,0,0,33.58.45,33.58.45,2.58.03,7.08-3.1,8.85-4.86,3.41-3.63,11.61-11.01,15.54-14.2Z"/>
</svg>