<?xml version="1.0" encoding="UTF-8"?>
<svg id="Camada_1" data-name="Camada 1" xmlns="http://www.w3.org/2000/svg" viewBox="0 0 1080 1080">
  <path d="M843.13,589.55v231.53s-20.11,20.77-20.11,20.77l-28.23,28.18-26.12,26.11-5.1,5.69-34.32,34.94-29.87,29.83-25.63,25.75c-3.84,3.86-7.59,6.79-10.96,11.49-1.36,1.9-5.18,6-7.56,6.01l-47.11.31-167.15-.08c-3.11,0-6.77-2.59-8.52-4.41l-12.69-13.24-19.69-19.56-16.04-16.2-16.5-16.28-9.35-9.67-19.68-20.1-31.76-31.18-36.38-36.2-16.16-15.86c-2.52-2.47-5.24-5.49-5.25-9.84l-.12-222.34c0-4.39.17-9.86,1.81-13.09l37.78-38.33,82.8-83.38,17.45-17.6,11.03-10.5,14.03-13.77,10.45-11.22c1.6-1.72.15-6.7-1.09-8.82l-15.1-25.66-25.21-42.94-6.02-10.88-4.36-7.7-44.13-77.14-5.3-8.73-11.18-19.65-16.19-27.83-11.54-20.26-14.23-24.22-3.66-5.99-9.63-16.93-4.89-9.05-12.34-20.64c-1.06-1.77-3.27-6.27-1.06-7.28l112.82-.41,14.06-.16,23.45.58c3.52,1.57,6.64,7.07,8.53,10.33l7.86,13.56,12.68,22.56,18.03,29.93,9.72,17.13,30.2,50.6,21,35.66,20.69,33.65,10.63,18.18,13.5,23.52c3.55-2.21,6.31-5.19,8.58-8.67l11.73-17.99,6.23-9.8,16.43-26.21,15.33-25.42,16.87-25.6,11.52-18.13,18.61-29.62,11.3-18.51,10.64-16.08,18.12-28.77,10.39-16.22,5.9-9.12c1.45-2.24,3.39-5.04,6.83-5.05l107.36-.37,22.98-.23,29.73.58c.92.02,2.09,3.61,1.74,3.96l-15.45,26.35-5.04,7.84-15.19,24.29-37.66,62.38-9.84,15.83-15.2,24.44-63.41,104.89-18.71,29.48-16.95,28.79c-2.61,4.43-3.14,8.23,1.6,11.89l5.35,5.98,18.8,19.59,16.51,16.78,35.3,35.86,16.11,16.1,35.9,36.47,23.76,24.38,13.61,13.06c.53,1.59,1.94,4.9,1.94,7.71ZM464.59,391.5c1.45,2.67,4.1,5.24,7.01,5.23l54.18-.23c.74-5.67-1.73-9.18-4.17-13.38l-5.88-10.17-4.87-7.88-10.64-18.06-10.13-17.95-18.35-30.55-5.19-8.57-16.35-28.69-29.35-49.28-16.15-28.99-12.22-19.65c-6.82-10.98-12.66-22.24-18.43-33.49-6.13-3.71-12.19-2.37-18.57-2.32l-36.33.32c-2.28.02-5.76,2.46-5.69,3.96l12.85,23.27,11.05,18.66,5.28,8.55,12.71,21.28,4.44,8.28,4.48,8.37,5.79,10.25,25.24,42.02,15.34,26.27,5.23,9.77,14.1,24.44,29.16,48.44,5.49,10.1ZM583.85,395.83c9.47,2.16,19.56-.14,28.43.08,8.97.22,14.4-2.05,18.97-9.59l20.04-33.07,10.79-16.96,16.15-26.45,10.54-16.33,41.43-65.09,35.68-58.1,8.29-12.33,16.29-26.38c.79-1.29-2.49-3.82-3.96-3.82l-43.78-.19c-4.32-.02-9.92-2.22-13.54.19-3.3,2.21-4.62,4.93-6.37,7.78l-14.68,23.85-14.02,20.97-15.48,25.54-11.67,17.81-7.61,11.72-30.37,48.35-9.03,14.66-8.79,12.58-16.14,25.33-16.64,26.13-5,7.58c-3.23,4.9-3.38,8.62.11,13.45,2.7,3.74,4.37,10.92,10.38,12.28ZM492.68,950.22l98.42-.16,11.73-1.25,28.08.5c2.56.05,6.1-2.99,7.84-4.71l10.31-10.2,5.41-5.42,125.66-125.67c6.44-6.45,5.7-14.47,5.74-22.89l.19-33.5.53-130.52c.02-4.59-1.16-8.86-4.31-11.92l-12.51-12.19-23.5-23.28-11.84-12.75-5.39-5.3-55.34-55.47-41.28-40.84-12.45-.84-21.35-.02-33.65-.11c-12.52-.04-24.83-.18-37.28-.04l-20.73.23-18.2-.04-25.75.62c-3.51.08-7.03,4.83-9.2,7.05l-13.42,13.65-26.09,26.1-13.94,13.96-37.27,37.41-10.68,10.39-11.25,11.34-26.06,26.1-5.11,4.73c-2.05,1.9-4.58,4.75-4.56,8.17l.32,38.13,1.29,13.91c.68,7.28-1.42,14.29-1.43,21.33l-.1,92.56,1.44,9.61-.4,9.73,45.48,45.05,24.05,22.83,13.14,13.7,5.43,5.3,63.52,63.45,28.29.12,6.2,1.17Z"/>
  <path d="M534.5,788.28c-22.39,16.73-48.49,36.11-71.21,52.25-4.27,3.14-14.21,10.49-18.68,13.16,0,0-3.03,1.76-3.03,1.76-.72.42-3.3-2-3.07-3.05,7.84-41.81,23.85-84.47,31.92-126.18-28.47-23.69-69.16-56.01-97.52-79.99-2.54-2.54-2.9-3.69.97-5.24,9.45.03,53.26.09,61.59-1.33,9.98-.12,39.76.01,49.22-.88,3.94-.19,10.27.51,13.35-2.56,4.18-4.16,5.37-10.78,7.49-16.07,6.86-16.04,13.02-36.28,18.75-52.72,7.88-18.33,16.21-39.3,23.07-58.04,6.01,3.12,8.9,17.77,11.15,23.15,3.76,11.55,11.59,36.26,15.25,47.59,2.87,9.15,9.13,29.76,12.1,38.66,2.34,5.62,2.28,19.61,10.78,19.97,12.9,2.53,69.36-.29,82.06,1.88,5.76.4,38.37-1.16,43.18,2.35-22.07,20.89-50.88,40.29-73.68,60.27,0,0-19.66,15.71-19.66,15.71-12.78,6.32-9.54,11.62-5.92,23.49,5.52,22.68,13.17,49.59,19.79,71.93,2.42,7.97,7.05,25.47,8.51,33.59.79,3.63,1.92,6.12.88,9.16-3.88-1.36-11.5-6.71-14.76-9.28-13.73-9.69-64.99-46.46-79.43-56.99-9.09-6.11-12.82-11.51-23.09-2.57Z"/>
</svg>