<?xml version="1.0" encoding="UTF-8"?>
<svg id="Camada_1" data-name="Camada 1" xmlns="http://www.w3.org/2000/svg" viewBox="0 0 1080 1080">
  <path d="M817.94,413.68c-13.32-.66-84.95.95-99.81.28-3.06-.6-11.65-.15-12.09-4.79,0,0,0-24.32,0-24.32,0-1.37,2.31-3.79,4.12-3.79h185.56c9.53.36.09,546.32,3.33,550.36-8.18,3.63-19.42-.06-29.99,2.67-4.7-.23-39.37,1.05-42.16-1.1-99.57-1.7-246.55,4.17-347.03.02-55.93-.7-136.76,2.46-191.91.27-14.63,1.67-29.27-.54-43.98.48,0,0-31.07.28-31.07.28-1.76.02-4.97-2.15-6.84-3.53,4.22-5.18-8.15-549.51,4.26-549.39,36.12.43,154.37-1.23,188.44.09,4.08,3.37,1.75,21.49,2.4,25.93.02,3.48-2.16,6.85-6.58,6.84-33.42,1.05-123.67-2.98-155.46,1.52-2.63,72.37-.14,409.37-1.04,477.47-.01,4.09,1.06,8,6.22,7.94,0,0,26.41-.32,26.41-.32,6.2-.33,21.62-.06,27.46-.26,120.23.58,292.42-.03,414.15.17,32.94.44,114.01-.4,147.68-.52,2.09-.01,5.22-1.89,7.04-3.09.83-27.7-.29-436.6.05-476.56.23-8.61-12.09-5.8-17.2-6.99-8.22-.52-23.95.94-31.93.37Z"/>
  <path d="M568.65,262.42c-.18,80.76.63,252.44.37,335.26-6.4,5.46-21.54,3.72-31.29,1.84-1.15-.43-1.77-4.15-1.34-5.31-1.25-41.85,1.2-394.85-.73-428.99-6.88-2.09-20.39,19.26-24.66,22.72,0,0-15.52,17.43-15.52,17.43-20.3,21.73-41.91,48.19-62.72,69.45,0,0-23.36,27.36-23.36,27.36-4.93,5.78-9.57,6.03-16.73,5.25-17.63-1.91-35.6,2.89-26.97-6.64,4.53-4.81,18.39-20.98,22.89-26.33,15.04-15,35.2-37.6,48.71-54.09,37.53-39.44,77.48-86.2,113.91-126.84,5.78,2.29,10.69,9.8,15.16,14.11,0,0,11.97,13.03,11.97,13.03,7.02,7.57,21.84,24.43,28.68,32.37,26.74,28.68,54.59,59.96,80.95,89.01,15.82,16.74,34.03,37.66,49.53,54.69,0,0,6.9,6.32,6.9,6.32,1.06.97-1.48,3.97-3.41,3.97l-37.58-.03c-19.98-20.97-42.79-44.77-61.37-67.01-13.66-14.31-31.77-34.41-44.73-49.58-3.64-3.88-12.69-13.54-16.4-17.52-4.34-4.35-9.98-13.85-12-.9,0,0-.28,90.43-.28,90.43Z"/>
</svg>