<?xml version="1.0" encoding="UTF-8"?>
<svg id="Camada_1" data-name="Camada 1" xmlns="http://www.w3.org/2000/svg" viewBox="0 0 1080 1080">
  <path d="M810.64,636.3c14.14,13.43,29.99,29.07,44.07,42.49,13.86,13.17,34.02,31.16,47.28,45.08-.24,33.55,1.15,222.56-.02,251.71.25,4.53-1.26,7.64-6.36,7.94,0,0-708.32,0-708.32,0-2.63,0-7.13-2.81-7.12-5.16,0,0,.39-104.25.39-104.25.97-47.05-1.5-103.53.77-150.32,43.03-43.41,94.09-91.58,137.16-134.65,5.1-4.95,11.38-3.57,17.77-3.04,9.75.81,19.53-.02,29.4-.05,24.68-.09,63.15-.15,87.75-.38,9.94,9.28,23.45,24.11,33.23,33.2,11.73,10.49,25.25,24.38,35.83,35.99,4.06,2.88,13.33,16.4,18.99,15.92,2.04-.14,4.1-2.24,5.8-3.97,9.88-10.14,30.95-31.45,40.81-41.29,0,0,37.81-37.23,37.81-37.23,1.52-1.5,5.77-1.6,7.93-1.72,39.01-1.54,84.06-.54,123.14.1,16.96,12.75,37.4,36.18,53.66,49.65ZM757.39,673.58c-7.86-6.35-16.29-15.08-23.7-21.95l-47.84.11c-10.21-2.75-21.57.12-32.02.44-18.64,18.79-44.71,44.33-63.14,63.06,0,0-42.42,42.64-42.42,42.64-2.08,2.09-5.93,8.1-9.97,4.05-33.23-33.49-73.63-73.41-106.66-107.21-6.55-6.18-27.54-2.06-35.67-2.9-6.12-1.9-12.69-1.73-18.87.09,0,0-27.22-.35-27.22-.35-32.46,28.07-66.92,64.04-97.32,94.36-4.01,4.07-8.5,6.76-9.53,12.84-.63,37.67,1.24,119.71,1.12,156.5,3.75,6.62,576.28.08,581.56,2.32,5.29,0,8.87-.4,13.33-2.08.16-38.17.73-115.09,1.1-153.01.03-3.4-.16-9.46-2.19-11.46-22.7-21.5-57.47-56.02-80.54-77.44Z"/>
  <path d="M620.51,556.99c-1.28,1.12-4.63,2.63-6.81,3.53,0,0-140.59.08-140.59.08-4.69,0-9.2-.69-12.32-3.85-13.67-13.85-41-41.49-54.55-55.42-10.82-11.89-65.53-66.46-77.97-79.05-6.25-8.94-1.49-94.42-2.71-106.33,0,0,.35-90.34.35-90.34.86-7.04-2.96-17.13,1.86-23.1,17.48-17.83,48.54-49.36,65.76-67.44,16.13-17.67,35.18-37.34,53.62-52.52l188.56.02c5.08,1.62,8.36,6.14,11.53,9.5,24.48,25.47,53.2,55.85,77.69,81.28,8.04,8.58,21.44,20.56,28.96,29.6.51,60.98,1.03,156.01.1,216.37-40.79,44.68-90.72,94.7-133.47,137.66ZM489.5,492.9c8.38,7.64,81.71,1.87,93.22,3.52,5.32,0,9.25-3.12,12.49-6.52,9.74-10.8,63.42-64.64,74.79-76.22,4.15-5.78,20.26-17.58,21-25.04.25-9.24.68-28.19.37-37.32,0,0-.27-113.75-.27-113.75,0-1.98-1.1-5.74-1.85-7.36-10.53-10.2-26.28-27.35-35.69-38.39-10.7-10.34-33.54-33.75-43.88-44.21h-138.02c-7.87,6.92-14.06,14.97-21.13,22.35-16.71,15.82-40.01,40.43-55.54,57.55-9.94-2.07-3.05,155.13-4.94,159.89.13,10.72,38.71,42.26,45.75,51.28,14.23,13.62,39.67,40.5,53.73,54.22Z"/>
</svg>