<?xml version="1.0" encoding="UTF-8"?>
<svg id="Camada_1" data-name="Camada 1" xmlns="http://www.w3.org/2000/svg" viewBox="0 0 1080 1080">
  <path d="M340.68,966c-5.28,0-7.93-1.41-7.85-6.07l.47-26.38c.34-20-.84-50.51.8-70.33,8.85-8.87,27.09-27.47,35.57-36.4,21.9-20.49,14.67-23.73,46.53-24,2.51-.13,5.26-4.41,7.14-6.21,0,0,13.84-13.24,13.84-13.24,8.27-8.49,32.05-31.59,39.88-40.4-1.58-29.36-.94-62.15-.32-91.58-90.17-87.1-182.47-177.6-272.86-264.47-3.97-5.19-13.25-8.86-13.84-16.1.9-51.46-.02-111.9.06-163.5,42.59-1.31,94.88,0,136.89-1.31,1.71-.04,4.75-3.1,4.77-5.09.85-16.52.3-53.94,1.05-70.1.04-2.75,1.04-8.02,5.02-8.01,35.97.86,337.77-1.58,380.78.86,7.14-1.88,15.12,1.25,30.2.06,0,0,15.02-1.19,15.02-1.19,5.06-.06,8.14,2.16,9.06,7.79,0,0-.06,71.28-.06,71.28,2.75,4.64,1.72,5.8,8.33,4.61,33.16.64,69.98.32,103.25.29,0,0,24.38-.49,24.38-.49,1.75-.04,5.2,2.24,7.06,3.35-2.49,4.58,6.33,171.95-5.8,168.82-55.03,53.6-115.57,111.79-170.1,165.95-20.23,18.92-58.19,56.1-77.97,75.91,0,0-21.86,21.63-21.86,21.63-2.93,2.9-9.73,6.74-9.85,11.51-.76,21.81-1.28,67.89-1.58,89.95,16.9,17.78,42.25,43.09,59.97,59.85,5.22-.17,9.28.15,14.3.93,2.49.39,8.54-.54,10.41,1.33,16.85,16.71,40.9,41.05,57.49,57.82v95.97c.41,1.4-.98,6.35-2.6,6.95l-427.56.02ZM625.34,820.93c1.04-.43,3.08-1.66,2.6-2.24-.08-.5-10.36-10.89-11.16-11.65-5.77-6.33-18.9-18.4-24.82-24.19-4.41-4.17-9.23-7.32-12.05-13.04,0,0-.05-140.71-.05-140.71-3.31-7.26,45.05-48.28,48.43-53.46,17.35-16.59,62.63-61.41,80.25-78.82,3.08-3.04,9.33-5.45,9.33-11.12,0,0,.02-302.44.02-302.44,0-3.46-4.57-4.26-7.28-4.26,0,0-302.94.24-302.94.24,0,0-19.4,1.12-19.4,1.12l-1.43,11.09-.06,293.34c0,6.23,6.05,9.23,9.6,12.49,40.66,38.66,89.13,86.23,129.44,125.21v149.8c-9.61,9.23-34.84,34.42-44.61,44.13-.51.51-1.75,2.64-1.13,2.98,0,0,2.97,1.6,2.97,1.6,0,0,142.29-.05,142.29-.05ZM303.4,408.8c3.76,2.19,23.24,28.1,28.22,22.32,1.28-17.64,1.83-35.97.71-53.53-1.21-32.39,1.94-86.84-.66-119.56-2.2-4.2-66.06-1-70.79-1.75-5.42.03-9.94,2.03-16.27.76-4.31,18.03-.29,37.26-2.29,55.41-.41,6.83-.9,13.72-.22,20.46,1.4,13.84-2.92,13.31,5.3,21.49,6.96,6.84,28.01,27.89,34.45,34.6,4.95,3.67,17.04,15.35,21.55,19.8ZM854.75,356.79c2.75-2.64,7.21-5.68,7.76-9.69,1.88-5.72,1.22-41.36,1.35-48.03,0,0-1.19-5.13-1.19-5.13.06-7.99.36-28.28,1.32-36.02-.53-3.52-78.37-1.51-82.21-1.99-2.7,0-5.92.71-7.81,2.19-1.47,56.05-.25,115.99-.7,172.15-.07,3.63,1.84,2.61,4.26,2.44,21.99-21.54,55.13-54.82,77.22-75.93ZM385.82,869.98v40.09s332.12.01,332.12.01v-40.09s-332.12-.01-332.12-.01Z"/>
</svg>