<?xml version="1.0" encoding="UTF-8"?>
<svg id="Camada_1" data-name="Camada 1" xmlns="http://www.w3.org/2000/svg" viewBox="0 0 1080 1080">
  <path d="M818.43,266.34c-33.29-32.35-70.39-68.71-103.19-101.74,0,0-7-7.06-7-7.06-3.02-3.29-5.38-3.17-6.3,1.5-1.24,7.83-1.04,63.45-1.15,72.69-93.13,8.79-263.96-.07-358.92,3.26-34.55,32.4-78.3,79.61-111.77,113.82-6.96,7.24-20.42,21.06-27.77,28.27-2.83,2.84-8.23,5.51-8.64,9.95-4.05,44.97,1.89,95.89-1.2,140.99,0,5.07-.02,51.1.04,54.96-1.2,23.18,4.75,23.66-15.38,39.91-5.1,4.54-10.09,10.34-15.95,14.05-1.19.75-3.73-2.8-3.71-4.17l.43-56.2c.47-57.89-.19-143.53.53-202.27,5.39-10.2,26.21-28.38,33.93-37.21,23.21-24.48,49.15-48.47,71.57-73.7,4.22-2.71,60.59-65.14,64.6-62.36,0,0,314.69-.22,314.69-.22,0,0,20.57-.98,20.57-.98,6.61-4.35,1.43-88.58,2.69-96.32.3-5.97-2.58-24.95,1.81-29.91,3.13.57,34.33,32.53,37.46,35.39,9.85,8.83,42.79,41.23,52.84,51.08,18.77,17.74,38.93,37.75,57.16,55.93,21.01,20.61,46.11,44.42,66.42,65.59,3.01,3.07,9.32,9.49,12.34,12.57,6.41,6.53,10.93,7.64,9.92,14.39-39.55,39.84-95.49,96.64-134.21,136.88-12.46,11.83-34.07,33.79-45.91,46.04-5.87,6.31-13.3,11.6-18.26,18.84l-6.81,1.62c-2.69-2.33-1.57-5.31-1.54-8.06,0,0,.34-32.75.34-32.75,2.14-4.94,6.94-9.77,10.78-13.16,5.8-6.41,14.32-15.57,20.48-21.49,29.82-28.59,66.73-67.32,96.31-96.64,6.41-6.63,22.82-23.95,29.35-30.81,2.42-4.45-2.83-8.75-5.49-11.64-8.78-10.08-21.35-21.74-31.03-31.06Z"/>
  <path d="M311.97,684.21c12.97-12.24,30.63-30.56,42.6-43.71,15.88-16.66,45.16-43.19,59.59-61.25l6.02,1.47s-.78,14.37-.78,14.37c-1.23,8.2,2.69,27.85-4.1,34.09-15.38,15.16-37.93,36.61-52.27,52.67-15.24,15.31-38.4,38.09-52.82,54.13-11.27,11.4-33.11,32.42-44.52,44.04,16.68,24.76,47.81,50.28,68.5,72,23.91,23.73,54.67,55.06,79.44,77.79,2.74.09,4.6-3.8,4.6-6.79,0,0,.03-86.97.03-86.97,0-3.01,3.94-5.98,7.31-5.98,0,0,326.99-.02,326.99-.02,3.11-1.61,6.83-3.4,8.7-5.29,10.79-10.53,25.19-26.62,35.98-37.24,14.01-13.47,31.68-31.02,44.69-45.46,17.47-18.95,40.5-39.26,57.94-58.19,5.59,1.9,1.89-219.44,2.92-226.18l18.75-18.77c4.02-4.06,8.05-9.56,15.07-7.24.13,55.38-1.02,211.37.06,264.22-5.69,7.59-14.54,15.22-21.03,22.12-17.79,17.88-36.85,36.52-54.5,54.47-11.57,11.8-24.38,24.26-35.97,36.03-12.94,14.98-28.94,29.93-43.43,43.45-4.83,3.59-8.74,11.91-15.46,12.03-.56,4.01-323.75-9.18-313.18,6.9.54,41.61-2.01,99.86-1.52,141.28,0,0-7.75-2.95-7.75-2.95-8.78-10.6-18.69-19.76-28.85-29.03-9.97-8.65-30.52-29.66-39.97-39.08-32.32-34.1-128.02-122.66-157.66-160.67,16.6-16.97,35.63-36.33,52.42-52.94,13.34-13.64,28.26-30.19,42.21-43.28Z"/>
</svg>