<?xml version="1.0" encoding="UTF-8"?>
<svg id="Camada_1" data-name="Camada 1" xmlns="http://www.w3.org/2000/svg" viewBox="0 0 1080 1080">
  <path d="M362.19,848.84c-44.36,43.91-97.72,94.2-141.77,138.37,0,0-4.69.58-4.69.58-.94.12-1.7-2.74-1.7-4.14,1.07-157.94-.1-584.89.47-735.81-.17-14.27-2.23-30.28,2.24-44,0,0,23.58-23.49,23.58-23.49,13.41-12.56,28.09-29.28,41.66-41.37,8.7-5.8,20.39-24.83,29.28-24.9,0,0,467.53.02,467.53.02,4.14,0,7.51,5.11,9.56,7.23,0,0,8.54,8.87,8.54,8.87,20.68,21.58,49.51,51.25,70.38,72.68,8.2,5.36.05,519.39,2.8,526.74-24.36,23.4-52.34,49.6-76.97,72.61-2.72,2.53-5.6,6.81-10.33,6.81h-379.27c-9.34,9.22-31.83,31.24-41.29,39.8ZM491.94,753.38c26.98,1.24,62.01.88,89.09.12,46.62,4.44,137.39-1.01,183.4.45,12.19-11.11,29.13-28.12,41.64-38.91,4.63-4.16,8.99-6.96,8.99-14.27,0,0-.02-470.19-.02-470.19-11.73-11.24-28.23-29.6-39.08-41.52-5.99-6.52-10.76-13.68-18.34-19.04,0,0-424.39.02-424.39.02-4.09,0-7.11,3.38-9.4,5.72-11.77,11.73-41.46,42.45-53.65,54.52-6.72,7.57.17,605.91-2.2,614.41,0,5.75,2.76,9.61-.18,15.25l5.59-.22c12.33-13.37,29.96-28.56,43.07-41.27,20.69-18.4,45.93-46.34,67.53-63.39,4.05-.27,108.1.95,107.95-1.67Z"/>
</svg>