<?xml version="1.0" encoding="UTF-8"?>
<svg id="Camada_1" data-name="Camada 1" xmlns="http://www.w3.org/2000/svg" viewBox="0 0 1080 1080">
  <path d="M237.04,187.24c4.16,4.41-8.05,720.79,4.2,719.83.01.01,420.52,0,420.52,0,3.07,0,6.38-1.46,8.35-3.42l-.02-277.39c-1.9-3.29.64-7.8,4.46-7.87,0,0,21.48-.41,21.48-.41,1.95-.04,4.96,3.13,5,4.84l.43,19c-.57,37.88-.18,254.63.3,289.87.02,1.62-1.72,4.82-2.77,5.94-1.39,1.48-4.66.52-6.97.54-104.25-.63-328.42.59-431.45.57,0,0-48.34-.6-48.34-.6-6.57-.08-6.68-7.48-6.8-12.24-.65-8.73-.19-25.56.61-34.17,0,0,.12-744.33.12-744.33,0-5.52,1.09-10.4.75-15.33-.3-4.39,5.71-5.23,8.94-5.1,24.36-.79,47.53-1.03,71.89-.4,108.07.06,236.76.24,343.78.02,22.11-.9,46-1.14,68.05,1.24,4.21,3.25.03,286.56,1.45,290.91,0,1.89-3.5,3.28-4.86,3.29-5.21-.86-23.11,3.03-24.92-3.95-2.18-76.94.99-156.12-1.43-233.1,0,0-.73-16.01-.73-16.01.39-6.23-2.36-10.21-8.99-9.94,0,0-11.38-.98-11.38-.98,0,0-394.4,0-394.4,0,0,0-10.42,1.12-10.42,1.12-1.27.14-3.8.95-4.7,1.78-1.05.96-1.37,4.24-1.2,5.94.72,7.17-.93,13.08-.93,20.38Z"/>
  <path d="M834.56,670.16c-4.51,4.49-26.13,26.27-30.31,30.08-7.74,7.51-4.35-14.4-4.49-18.15,0,0,.49-19.96.49-19.96,8.67-10.25,21.3-23.98,30.8-33.21,8.13-9.87,21.65-21.95,30.85-31,17.79-18.57,38.5-39.41,56.22-58.18l-4.44-2.71c-98.61.02-278.05.18-375.56-.01-1.91,0-4.06-2.35-4.07-3.79.7-7.29-1.79-21.62,2.16-28.19l373.59.05c3.34,0,5.61-2.01,6.14-4.8-36.17-35.13-79-79.25-115.33-114.15-2.49-6.17-1.39-32.07-1.45-38.87,1.65-3.83,2.66-3.6,5.55-1.09,0,0,7.68,7.41,7.68,7.41,11.98,11.47,30.82,31.52,43.14,42.94,21.42,19.55,43.68,43.34,64.03,64.02,2.8,2.88,8.72,8.66,11.68,11.39,4.36,2.47,30.94,29.77,35.12,33.75,4.22,5.21,11.56,10.75,14.14,17.04-14.44,17.08-46.92,47.63-63.05,63.83-12.14,13.14-26.33,27.38-38.97,39.92-13.6,13.43-29.88,30.56-43.9,43.7Z"/>
</svg>