<?xml version="1.0" encoding="UTF-8"?>
<svg id="Camada_1" data-name="Camada 1" xmlns="http://www.w3.org/2000/svg" viewBox="0 0 1080 1080">
  <path d="M614.26,1004.35l-117.39.22-61.53-73.11-.12-39.42-274.83-.06-.23-42.04,106.66-262.05.04-285.68,54.52-113.81,133.86-122.46,198.77-.07,134.39,122.6,54.51,113.64.09,285.29,107.48,261.84-.26,42.76-275.57-.03-.15,39.93-60.24,72.44ZM900.38,844.62l-100.68-251.94-.17-280.39-46.63-97.75-114.72-104.2-166.92.16-114.22,104.25-46.87,98.46.09,279.65-99.72,251.69,689.83.06ZM592.48,962.77l39.18-47.2-.02-23.53-153.31-.07-.21,23.58,40.17,47.56,74.2-.33Z"/>
</svg>