<?xml version="1.0" encoding="UTF-8"?>
<svg xmlns="http://www.w3.org/2000/svg" viewBox="0 0 1080 1080">
  <defs>
    <linearGradient id="m" gradientUnits="objectBoundingBox" x1="0.28" y1="0" x2="0.56" y2="1">
      <stop offset="0" stop-color="#f6e6ac"/>
      <stop offset="0.12" stop-color="#c69a2e"/>
      <stop offset="0.32" stop-color="#8f6415"/>
      <stop offset="0.56" stop-color="#62430d"/>
      <stop offset="0.8" stop-color="#452e07"/>
      <stop offset="1" stop-color="#2c1c05"/>
    </linearGradient>
  </defs>
  <path fill-rule="evenodd" fill="url(#m)" stroke="#d9b45a" stroke-width="4" d="M962.5 16.9L360.4 161.4L223.2 676.2L130.6 1048.5L206.5 1049.5L423.9 221.8L814.9 127.1L842.9 116.7L830.5 144.8L822.1 172.9L823.2 179.1L467.5 263.4L404.1 493.2L665.1 493.2L656.8 508.8L647.4 542.0L390.6 544.1L255.4 1046.4L261.7 1049.5L351.1 1048.5L462.3 632.5L727.5 630.4L791.0 412.1L793.0 402.7L785.8 401.7L519.5 402.7L538.3 334.1L899.1 242.6L963.6 23.1L962.5 16.9Z M664.1 168.7L604.8 179.1L576.7 188.5L485.2 210.3L475.9 212.4L484.2 208.2L479.0 209.3L469.6 212.4L472.7 212.4L470.7 214.5L458.2 214.5L467.5 214.5L456.1 218.6L462.3 217.6L663.0 169.8Z"/>
</svg>
