<?xml version="1.0" encoding="UTF-8"?>
<svg id="Camada_1" xmlns="http://www.w3.org/2000/svg" version="1.1" viewBox="0 0 989.45 355.51">
  <!-- Generator: Adobe Illustrator 30.5.1, SVG Export Plug-In . SVG Version: 2.1.4 Build 3)  -->
  <defs>
    <style>
      .st0 {
        fill: #fff;
      }

      .st0, .st1 {
        display: none;
      }

      .st1 {
        fill: #e50000;
      }
    </style>
  </defs>
  <rect class="st1" x="-32" y="-37" width="1045" height="436"/>
  <path class="st0" d="M0,355.51V0h989.45v355.51H0ZM188.34,185.56h-84.63l-2.52,6.53-25.9,90.87-16.06,55.89h35.09l16.06-55.79,18.4-63.71,86.2.02,21.02-75.05h-84.87l5.07-22.91,116.35-31.58,22.58-81.17L96.09,59.89l-63.97,222.89-16.17,56.07h35.02L123.73,86.74l93.03-23.71,31.38-8.02-1.73,6.5-94,25.85-24.43,6.6-14.75,59.01-2.75,10.88-3.75,14.07h84.2l-2.6,7.64h0ZM408.37,138.55l-56.81,34.67-22.91,116.86h-34.03l29.58-153.17-57.07,36.44-33.36,165.86h136.66l37.96-200.65h-.02ZM972.97,140.97l-74.74-.02-25.6,35.39-15.77-35.39-71.25.03,47.19,107.48-17.34,91.03,63.62.03,15.53-85.06,78.34-113.48h.02ZM505.94,339.16l23.95-135.36,29.19-.06,46.82-62.39h-153.86l-45.09,62.41,60,.05-23.95,135.37,62.94-.02h0ZM676.69,339.16l23.95-135.37,29.18-.05,46.29-61.69c.21-.3.14-.75-.2-.71h-153.13l-45.08,62.4,60,.05-23.95,135.37,62.94-.02v.02Z"/>
  <polygon points="188.34 185.56 190.94 177.93 106.74 177.93 110.48 163.85 113.24 152.97 127.98 93.97 152.41 87.37 246.42 61.51 248.15 55.02 216.76 63.04 123.73 86.74 50.97 338.86 15.95 338.85 32.12 282.78 96.09 59.89 295.13 8.67 272.55 89.84 156.2 121.41 151.13 144.31 236 144.32 214.98 219.37 128.78 219.35 110.38 283.06 94.32 338.86 59.23 338.85 75.29 282.97 101.19 192.09 103.71 185.55 188.34 185.56"/>
  <path d="M408.37,138.55l-37.96,200.65h-136.66l33.36-165.85,57.07-36.44-29.58,153.16h34.03l22.91-116.84,56.81-34.67h.02ZM375.03,186.94l-2.19,1.25-24.63,125.62h-82.37l24.47-126.77c-.91.18-1.49.62-1.98,1.36l-25.56,127.06h87.95l24.31-128.51h0Z"/>
  <path d="M972.97,140.97l-78.34,113.48-15.53,85.06-63.62-.03,17.34-91.03-47.19-107.48,71.25-.03,15.77,35.39,25.6-35.39,74.74.02h-.02ZM867.8,236.4l9.15-12.1,39.16-53.54c-1.12-.36-2.1-.35-2.94,0l-46.69,64.61-28.83-64.83-3.3.13,30.68,65.38-1.56,8.92-12.29,65.01,3.27-.04,12.1-66.12,1.25-7.41h0Z"/>
  <path d="M505.94,339.16l-62.94.02,23.95-135.37-60-.05,45.09-62.4h153.86l-46.82,62.39-29.19.06-23.95,135.36h0ZM481.43,309.48l23.88-134.97h39.08l2.75-3.89h-79.96l-2.84,3.87,37.57.04-23.92,135.15c1.11.26,2.2.33,3.45-.2h-.01Z"/>
  <path d="M676.69,339.16l-62.94.02,23.95-135.37-60-.05,45.08-62.4h153.13c.33-.04.4.41.2.71l-46.29,61.69-29.18.05-23.95,135.37v-.02ZM652.18,309.48l23.88-134.97h39.08l2.75-3.89h-79.96l-2.84,3.87,37.57.04-23.92,135.15c1.11.26,2.2.33,3.45-.2h-.01Z"/>
</svg>